<svg width="124" height="129" viewBox="0 0 124 129" fill="none" xmlns="http://www.w3.org/2000/svg">
<g clip-path="url(#clip0_43_418)">
<path d="M62.0111 93.6323C36.2803 93.6323 15.3366 72.625 15.3366 46.8161C15.3366 21.0072 36.2581 0 62.0111 0C87.7641 0 108.686 21.0072 108.686 46.8161C108.686 72.625 87.7419 93.6323 62.0111 93.6323ZM62.0111 4.44598C38.7181 4.44598 19.7691 23.4525 19.7691 46.8161C19.7691 70.1797 38.7181 89.1863 62.0111 89.1863C85.304 89.1863 104.253 70.1797 104.253 46.8161C104.253 23.4525 85.304 4.44598 62.0111 4.44598Z" fill="white"/>
<path d="M77.3255 93.6323C51.5946 93.6323 30.6509 72.625 30.6509 46.8161C30.6509 21.0072 51.5946 0 77.3255 0C103.056 0 124 21.0072 124 46.8161C124 72.625 103.078 93.6323 77.3255 93.6323ZM77.3255 4.44598C54.0325 4.44598 35.0835 23.4525 35.0835 46.8161C35.0835 70.1797 54.0325 89.1863 77.3255 89.1863C100.618 89.1863 119.567 70.1797 119.567 46.8161C119.567 23.4525 100.618 4.44598 77.3255 4.44598Z" fill="white"/>
<path d="M46.6745 93.6323C20.9437 93.6323 0 72.625 0 46.8161C0 21.0072 20.9437 0 46.6745 0C72.4054 0 93.3491 21.0072 93.3491 46.8161C93.3491 72.625 72.4054 93.6323 46.6745 93.6323ZM46.6745 4.44598C23.3816 4.44598 4.43253 23.4525 4.43253 46.8161C4.43253 70.1797 23.3816 89.1863 46.6745 89.1863C69.9675 89.1863 88.9165 70.1797 88.9165 46.8161C88.9165 23.4525 69.9675 4.44598 46.6745 4.44598Z" fill="white"/>
<path d="M23.16 109.949H28.4347V124.421H37.3219V128.6H23.1821V109.949H23.16Z" fill="white"/>
<path d="M38.1419 119.286C38.1419 113.684 42.5301 109.571 48.4919 109.571C54.4536 109.571 58.8418 113.684 58.8418 119.286C58.8418 124.887 54.4536 129 48.4919 129C42.5301 129 38.1419 124.887 38.1419 119.286ZM53.5006 119.286C53.5006 116.062 51.2844 113.95 48.4697 113.95C45.6551 113.95 43.4388 116.062 43.4388 119.286C43.4388 122.509 45.6551 124.621 48.4697 124.621C51.2844 124.621 53.5006 122.509 53.5006 119.286Z" fill="white"/>
<path d="M74.0676 118.885H78.7217V126.621C76.5719 128.177 73.6243 129 70.8983 129C64.9809 129 60.637 124.976 60.637 119.286C60.637 113.617 64.9809 109.571 71.0091 109.571C74.4886 109.571 77.3033 110.771 79.1428 112.994L75.7962 116.04C74.5108 114.617 73.0481 113.95 71.2751 113.95C68.0836 113.95 65.956 116.062 65.956 119.286C65.956 122.442 68.0836 124.621 71.2086 124.621C72.1837 124.621 73.1146 124.443 74.0454 123.998V118.885H74.0676Z" fill="white"/>
<path d="M81.1153 119.286C81.1153 113.684 85.5035 109.571 91.4652 109.571C97.427 109.571 101.815 113.684 101.815 119.286C101.815 124.887 97.427 129 91.4652 129C85.5035 129 81.1153 124.887 81.1153 119.286ZM96.474 119.286C96.474 116.062 94.2577 113.95 91.4431 113.95C88.6284 113.95 86.4343 116.062 86.4343 119.286C86.4343 122.509 88.6506 124.621 91.4652 124.621C94.2799 124.621 96.474 122.509 96.474 119.286Z" fill="white"/>
</g>
<defs>
<clipPath id="clip0_43_418">
<rect width="124" height="129" fill="white"/>
</clipPath>
</defs>
</svg>
