<svg width="133" height="133" viewBox="0 0 133 133" fill="none" xmlns="http://www.w3.org/2000/svg">
<path d="M66.5 133L0 66.5L66.5 0L133 66.5L66.5 133ZM4.60134 66.5L66.5 128.399L128.399 66.5L66.5 4.60134L4.60134 66.5Z" fill="white"/>
<path d="M113.522 113.522H19.4785V19.4785H113.522V113.522ZM22.7303 110.27H110.27V22.7303H22.7303V110.27Z" fill="white"/>
<path d="M37.9977 59.281H41.8674V69.8657H48.3873V72.9224H38.0139V59.281H37.9977Z" fill="white"/>
<path d="M48.9889 66.1099C48.9889 62.0126 52.2082 59.0046 56.5819 59.0046C60.9556 59.0046 64.1749 62.0126 64.1749 66.1099C64.1749 70.2072 60.9556 73.2151 56.5819 73.2151C52.2082 73.2151 48.9889 70.2072 48.9889 66.1099ZM60.2565 66.1099C60.2565 63.7523 58.6306 62.2077 56.5657 62.2077C54.5007 62.2077 52.8748 63.7523 52.8748 66.1099C52.8748 68.4675 54.5007 70.0121 56.5657 70.0121C58.6306 70.0121 60.2565 68.4675 60.2565 66.1099Z" fill="white"/>
<path d="M75.345 65.8172H78.7594V71.4754C77.1823 72.6136 75.0198 73.2151 73.0199 73.2151C68.6787 73.2151 65.4919 70.2722 65.4919 66.1099C65.4919 61.9638 68.6787 59.0046 73.1012 59.0046C75.6539 59.0046 77.7188 59.8826 79.0683 61.5086L76.6132 63.7361C75.6702 62.6955 74.5971 62.2077 73.2963 62.2077C70.955 62.2077 69.3941 63.7523 69.3941 66.1099C69.3941 68.4187 70.955 70.0121 73.2476 70.0121C73.963 70.0121 74.6458 69.882 75.3287 69.5568V65.8172H75.345Z" fill="white"/>
<path d="M80.5154 66.1099C80.5154 62.0126 83.7347 59.0046 88.1084 59.0046C92.4822 59.0046 95.7015 62.0126 95.7015 66.1099C95.7015 70.2072 92.4822 73.2151 88.1084 73.2151C83.7347 73.2151 80.5154 70.2072 80.5154 66.1099ZM91.783 66.1099C91.783 63.7523 90.1571 62.2077 88.0922 62.2077C86.0273 62.2077 84.4014 63.7523 84.4014 66.1099C84.4014 68.4675 86.0273 70.0121 88.0922 70.0121C90.1571 70.0121 91.783 68.4675 91.783 66.1099Z" fill="white"/>
</svg>
