<svg width="78" height="88" viewBox="0 0 78 88" fill="none" xmlns="http://www.w3.org/2000/svg">
<g clip-path="url(#clip0_79_69)">
<path d="M43.8316 79.4572C43.6412 79.4426 43.5387 79.428 43.5241 79.4134L43.3044 78.2161C43.2898 78.2015 43.2898 78.1577 43.2898 78.1139C43.3044 78.0409 43.3044 78.0117 43.2898 77.9971C43.2898 77.8803 43.2751 77.7343 43.2312 77.5591C43.2019 77.2817 43.1287 76.9751 43.0554 76.6393L43.1287 76.2304L43.9488 76.0552C44.5053 76.172 44.8714 76.3473 45.0618 76.5955C45.2522 76.8291 45.384 77.2087 45.4865 77.7635C45.4865 77.8365 45.4865 77.9971 45.4425 78.2161C45.3107 78.9462 44.8714 79.3842 44.1392 79.4864C44.1099 79.4864 44.0074 79.4718 43.8316 79.4572ZM43.4362 75.6902L42.6747 76.0114L41.9571 75.953L41.8839 76.3326L42.3232 76.4349L42.4111 76.6685C42.4404 76.9021 42.4843 77.2671 42.5429 77.7489C42.6161 78.2161 42.66 78.5812 42.704 78.8294C42.704 78.9608 42.7333 79.0484 42.7479 79.1068C42.7479 79.136 42.7625 79.1652 42.7772 79.209C42.7918 79.2674 42.8065 79.3112 42.8211 79.3404C42.8358 79.501 42.7186 79.647 42.4697 79.7784L42.5136 80.0996L43.4509 79.8514L44.3881 79.8806L45.135 79.6032C45.3107 79.5302 45.5158 79.355 45.7208 79.0484C45.8819 78.8294 46.0283 78.5812 46.1601 78.3184L46.1308 77.1649C46.0723 76.7707 45.8087 76.4057 45.3254 76.0406C45.0618 75.8508 44.8714 75.734 44.7396 75.6756C44.6224 75.6172 44.4174 75.588 44.0952 75.588C43.8609 75.6464 43.6412 75.661 43.4362 75.6902ZM33.1849 75.661L33.2435 75.8946C33.551 75.9676 33.7414 76.0698 33.8439 76.2012C33.6535 78.1869 33.4778 79.209 33.2874 79.282L32.9067 79.3112L32.8041 79.6032L33.0531 79.793C33.097 79.7054 33.2288 79.6762 33.4339 79.6908C33.595 79.7054 33.8879 79.7492 34.3126 79.8368C34.3418 79.7784 34.3565 79.7346 34.3711 79.6908C34.3858 79.5156 34.2393 79.4134 33.9611 79.3404L33.8439 79.1798C33.9025 79.0046 33.9611 78.698 33.9757 78.2892C34.005 78.0993 34.0197 77.8219 34.0489 77.4715C34.0782 77.1065 34.1075 76.8291 34.1222 76.6539L34.1515 76.6393L34.254 76.7707C34.4736 77.5737 34.6494 78.1139 34.7958 78.3476C34.8105 78.6104 34.8837 78.8732 35.0887 79.1068L35.1327 79.6324C35.1327 79.6908 35.1766 79.7638 35.2645 79.8076C35.3084 79.8368 35.3816 79.866 35.4841 79.8952C35.572 79.6324 35.6452 79.428 35.7038 79.282C35.8942 78.9462 36.0406 78.7126 36.1285 78.5666L36.9632 77.1065C37.0072 77.0335 37.0658 76.9897 37.1097 76.9751L36.9632 79.1652C36.9486 79.4718 36.7289 79.6324 36.3189 79.6324L36.2164 79.9828L36.436 80.0704L36.9047 79.9536C37.0218 80.012 37.139 80.0266 37.2415 80.0412C37.3294 80.0558 37.4026 80.0412 37.4612 80.012L37.9298 80.231L38.1055 79.866L37.593 79.6032C37.593 79.5594 37.5783 79.5156 37.5637 79.4718L37.798 76.5079C37.9005 76.4349 37.9737 76.3911 38.047 76.4057C38.0762 76.4057 38.1202 76.4203 38.1641 76.4641C38.2813 76.4787 38.3545 76.3619 38.4277 76.1574L38.7499 76.2012L38.8085 76.2743C38.7938 76.4057 38.7938 76.6101 38.8085 76.8291C38.8085 76.8291 38.8231 77.1503 38.8524 77.7489C38.8671 78.0263 38.8817 78.2308 38.8817 78.3768C38.8817 78.4206 38.8963 78.5082 38.9256 78.6688C38.9403 78.771 38.9403 78.8732 38.9403 78.9316C38.9549 79.3696 38.8085 79.5886 38.5156 79.6032L38.457 79.8952L38.6767 80.0412L38.8378 79.9098L39.321 79.8514C39.4089 79.8514 39.5261 79.8514 39.7164 79.8806C39.8775 79.9098 39.9947 79.9244 40.0972 79.9244C40.1704 79.9244 40.2729 79.8952 40.434 79.8806C40.5951 79.8514 40.7123 79.8368 40.8002 79.8368C41.0198 79.8368 41.2102 79.8368 41.4006 79.8806C41.6496 79.4134 41.7521 79.0776 41.7521 78.8732C41.7521 78.8586 41.7521 78.8294 41.7521 78.8002L41.4592 78.6542C41.1956 79.136 41.0345 79.3696 40.9466 79.3842L39.6725 79.4864L39.6139 79.428L39.5114 78.0117C39.6872 77.9825 39.8629 77.9679 40.024 77.9679C40.2729 77.9533 40.4926 77.9679 40.6976 78.0117C40.7123 78.0117 40.7416 78.0555 40.7855 78.1869C40.7855 78.2308 40.8002 78.3038 40.8148 78.406L41.0931 78.5374L41.2395 78.3768C41.2102 78.187 41.1809 77.9971 41.1809 77.8365C41.1809 77.6613 41.1809 77.4861 41.2102 77.2671L40.932 77.0919C40.8587 77.4131 40.683 77.5737 40.4633 77.5883C40.3755 77.5883 40.2729 77.5737 40.1558 77.5299L39.5407 77.6613C39.4968 77.6321 39.4821 77.5591 39.4821 77.4131C39.4821 77.3985 39.4821 77.0335 39.4968 76.3035L40.3901 76.172L40.8294 76.2159C40.9173 76.2159 40.932 76.2597 40.932 76.3181C40.932 76.3619 40.932 76.4203 40.888 76.5079C40.888 76.6977 40.9905 76.7853 41.1956 76.7853L41.342 76.6393L41.4152 75.8946L41.1516 75.7048C40.229 75.734 39.6579 75.807 39.4675 75.9238C39.0428 75.953 38.706 75.8946 38.4863 75.7778L38.3838 76.099L38.252 75.9968C38.1055 76.0698 37.9298 76.0844 37.7101 76.0698C37.6369 76.0698 37.5637 76.0698 37.4612 76.0406L37.2122 76.1574C37.1097 76.4057 36.9486 76.6977 36.7143 76.9897C36.5971 77.1357 36.5093 77.2233 36.4507 77.3109L35.7038 78.771C35.6745 78.7856 35.6452 78.8002 35.6452 78.8002C35.6159 78.8002 35.6013 78.771 35.572 78.7126L35.1327 77.3839L35.0009 77.2087L34.6347 75.8508C34.5322 75.7778 34.459 75.7632 34.4004 75.7632C34.3418 75.7486 34.2686 75.7632 34.2247 75.7924L33.3899 75.5588L33.1849 75.661ZM47.1413 74.9018L46.4237 74.931C46.3212 74.9456 46.2773 75.0624 46.3066 75.3398C46.4091 75.4128 46.5116 75.4274 46.6288 75.3982C46.6873 75.3836 46.7459 75.3544 46.8191 75.296C46.9363 75.369 47.0242 75.4858 47.0681 75.661C47.112 75.8508 47.1999 76.1428 47.2878 76.5371C47.3756 76.9313 47.4489 77.2233 47.5074 77.4131C47.5367 77.4861 47.5514 77.5883 47.5953 77.7197C47.6392 77.8365 47.6685 77.9387 47.6978 78.0117C47.7857 78.3476 47.7271 78.5374 47.5074 78.6104C47.4489 78.625 47.3903 78.625 47.3317 78.625L47.2145 78.9462C47.3171 79.0776 47.4196 79.136 47.5221 79.1068C47.5953 79.0922 47.6685 79.0338 47.7417 78.9316L48.2397 78.7564L48.9573 78.7272C49.0744 78.7272 49.1037 78.5812 49.0744 78.333C49.0012 78.2454 48.884 78.2307 48.7962 78.2599C48.7376 78.2746 48.679 78.3037 48.6204 78.3476L48.43 78.2308C48.0639 76.8437 47.8589 76.0698 47.8296 75.9092C47.815 75.88 47.815 75.8508 47.8003 75.7924C47.771 75.734 47.771 75.6756 47.7564 75.6318C47.6539 75.2668 47.7125 75.0332 47.9468 74.9748C47.9761 74.9602 48.02 74.9456 48.0786 74.9456V74.6682L47.7857 74.5952L47.1413 74.9018ZM27.4588 74.2009L27.8103 74.4054L27.8542 74.493C27.781 74.6244 27.7078 74.785 27.6199 75.0186C27.6199 75.0332 27.5321 75.3106 27.3124 75.88C27.2099 76.1428 27.1366 76.3473 27.0927 76.4787C27.0781 76.5079 27.0634 76.6101 27.0195 76.7561C26.9756 76.8583 26.9609 76.9459 26.917 77.0335C26.7705 77.4277 26.5509 77.5737 26.2726 77.4715L26.0969 77.7343L26.2433 77.9679L26.463 77.9095L26.917 78.0409C27.0048 78.0701 27.1074 78.1432 27.2538 78.2308C27.4003 78.3184 27.5174 78.3914 27.5906 78.406C27.6639 78.4352 27.7664 78.4644 27.9128 78.5082C28.0593 78.5374 28.1764 78.5812 28.2496 78.625C28.4547 78.698 28.6304 78.8002 28.7769 78.9024C29.1869 78.5666 29.4212 78.3038 29.5091 78.1139C29.5091 78.0993 29.5237 78.0701 29.5384 78.0409L29.3187 77.7927C28.894 78.1285 28.6304 78.2892 28.5572 78.2746L27.3417 77.8657L27.3124 77.7781L27.7664 76.4495C27.9421 76.4787 28.1178 76.5225 28.2789 76.5955C28.4986 76.6831 28.689 76.7707 28.8794 76.8875C28.894 76.9021 28.894 76.9751 28.8794 77.0919C28.8647 77.1357 28.8501 77.2233 28.8354 77.3109L29.0405 77.5445L29.2601 77.3839C29.3041 77.1941 29.348 77.0043 29.4066 76.8437C29.4652 76.6831 29.553 76.5225 29.6555 76.3473L29.4798 76.0698C29.2601 76.3473 29.0405 76.4203 28.8354 76.3473C28.7476 76.3181 28.6743 76.2596 28.5718 76.172L27.9567 76.0406C27.9275 76.0114 27.9421 75.9238 27.986 75.7924C27.986 75.8216 28.1471 75.4712 28.4547 74.7704L29.3187 75.004L29.7141 75.2084C29.7727 75.2376 29.7873 75.2814 29.7727 75.3398C29.758 75.3836 29.7141 75.4274 29.6555 75.5004C29.5823 75.6756 29.6262 75.807 29.8166 75.8654L30.007 75.7924L30.3585 75.1354L30.1974 74.858C29.3187 74.5222 28.7622 74.3762 28.5572 74.4054C28.1618 74.2593 27.8689 74.0841 27.7078 73.8943L27.4588 74.2009ZM51.5347 73.4125C51.1833 73.4417 50.9343 73.4855 50.7732 73.5585C50.7439 73.5731 50.7293 73.5731 50.7 73.5877L50.451 73.5585C50.3485 73.6753 50.246 73.7483 50.1728 73.7921C50.1142 73.8067 50.0556 73.8213 50.0117 73.8067L49.587 74.1717C49.4405 74.3762 49.338 74.5222 49.2941 74.639C49.1769 74.7996 49.1184 75.0186 49.0891 75.2668C49.0744 75.3836 49.0744 75.6026 49.0598 75.9238L49.4259 76.8291C49.4405 76.8583 49.4845 76.9021 49.5431 76.9897C49.8067 77.3255 50.1581 77.5445 50.5682 77.6759C51.0515 77.8365 51.5787 77.8073 52.1352 77.5737L52.926 77.0189C53.0724 76.6685 53.0578 76.3035 52.9113 75.9384L52.5306 75.9968C52.5599 76.3473 52.5159 76.6393 52.4427 76.8291C52.4134 76.9313 52.1937 77.0773 51.7544 77.2525C51.6812 77.2817 51.5347 77.2817 51.3297 77.2525C51.1393 77.2379 50.9929 77.1941 50.8904 77.1649C50.7878 77.1211 50.6707 77.0627 50.5242 76.9751C50.3632 76.8729 50.246 76.7853 50.2313 76.7123L49.7188 75.588L49.792 75.515L49.7334 74.9456L50.0556 74.3178L50.5828 74.0111C51.154 73.9089 51.4908 73.9381 51.564 74.1279C51.564 74.1425 51.564 74.1571 51.5787 74.1717C51.5787 74.1863 51.5933 74.2155 51.5933 74.2155C51.6519 74.4054 51.7837 74.4638 51.9594 74.3908C52.0766 74.2301 52.0473 73.9235 51.8423 73.4271L51.6958 73.2957L51.5347 73.4125ZM53.5557 72.0984L53.0578 72.5511L52.3695 72.7701C52.267 72.7993 52.2523 72.9307 52.3402 73.1789C52.472 73.2227 52.5745 73.2081 52.677 73.1497C52.7356 73.1205 52.8088 73.0767 52.8381 73.0183C52.9846 73.0621 53.0871 73.1497 53.1749 73.3103C53.2628 73.4855 53.4239 73.7483 53.5996 74.0987C53.8047 74.4638 53.9511 74.7266 54.0536 74.9018C54.0829 74.9602 54.1415 75.0478 54.2001 75.1646C54.2879 75.2814 54.3319 75.3544 54.3758 75.4128C54.5515 75.734 54.5515 75.9238 54.3319 76.0406C54.2879 76.0698 54.2294 76.099 54.1708 76.099L54.1415 76.4495C54.2733 76.5517 54.3758 76.5809 54.4637 76.5225C54.5222 76.4933 54.5808 76.4203 54.6394 76.3035L55.0641 76.0114L55.7524 75.8216C55.8696 75.7778 55.8842 75.6318 55.7963 75.3982C55.6938 75.3544 55.5913 75.3544 55.4888 75.3982C55.4449 75.4128 55.4009 75.4712 55.357 75.515L55.1227 75.442C54.4344 74.1863 54.039 73.4855 53.9657 73.3541C53.9511 73.3395 53.9218 73.2811 53.8925 73.2373C53.8632 73.1789 53.834 73.1351 53.8193 73.1059C53.6143 72.7701 53.6143 72.5365 53.8193 72.4197C53.834 72.4051 53.8925 72.3905 53.9365 72.3759L53.8632 72.113L53.5557 72.0984ZM23.4462 75.8508C23.4315 75.8362 23.3437 75.7632 23.1972 75.6464C23.0654 75.515 22.9775 75.4566 22.9775 75.442L23.4755 74.3178C23.4901 74.2886 23.5048 74.2739 23.534 74.2155C23.578 74.1863 23.6073 74.1571 23.6073 74.1425C23.6658 74.0403 23.7391 73.9089 23.8123 73.7629C23.9441 73.5147 24.0759 73.2227 24.1931 72.9015L24.5006 72.6241L25.2768 72.9453C25.6575 73.3541 25.8479 73.7191 25.8772 74.0257C25.9065 74.3178 25.7747 74.7266 25.5404 75.223C25.4964 75.296 25.3939 75.4128 25.2328 75.5588C24.9106 75.88 24.5592 76.0406 24.1784 76.0406C23.9295 76.0406 23.6951 75.9676 23.4462 75.8508ZM23.4315 71.9816L23.7244 72.3175L23.6658 72.5511C23.5487 72.7701 23.3876 73.0913 23.1679 73.5293C22.9483 73.9527 22.7725 74.2739 22.6554 74.5076C22.5968 74.6098 22.5529 74.6974 22.5236 74.7704C22.5236 74.785 22.5089 74.8142 22.4943 74.8872C22.4796 74.931 22.4503 74.9894 22.4503 75.0186C22.3771 75.1646 22.1867 75.2084 21.9085 75.1792L21.762 75.4712L22.6847 75.7924L23.4315 76.3473L24.1931 76.5517C24.3981 76.5955 24.6617 76.5663 25.0132 76.4349C25.2768 76.3619 25.5257 76.2304 25.7747 76.099L26.4337 75.15C26.6094 74.785 26.6094 74.347 26.4191 73.7921C26.3165 73.4563 26.2287 73.2519 26.1701 73.1643C26.1115 73.0475 25.9358 72.9015 25.6868 72.7263C25.4818 72.5803 25.2914 72.4635 25.1157 72.3759L24.3102 72.186L23.7684 71.7334L23.4315 71.9816ZM10.3245 55.512C10.222 55.4682 10.1195 55.4098 10.0463 55.3368C9.97305 55.2638 9.89982 55.147 9.85589 54.9864C9.8266 54.8404 9.84124 54.709 9.87053 54.6068C9.91447 54.49 9.97305 54.4023 10.0463 54.3147C10.222 54.1687 10.4417 54.0519 10.7199 53.9935C10.9835 53.9205 11.2325 53.9205 11.4668 53.9789C11.7011 54.0519 11.8476 54.2125 11.9354 54.49C11.994 54.782 11.9208 55.001 11.7451 55.1616C11.5693 55.3076 11.3496 55.4244 11.0714 55.4828C10.9396 55.5266 10.7932 55.5412 10.6613 55.5412C10.5442 55.5412 10.4417 55.5412 10.3245 55.512ZM10.6174 53.5847C10.2513 53.6577 10.0023 53.8329 9.85589 54.1103C9.72409 54.3731 9.68015 54.6652 9.75338 55.0156C9.84124 55.366 10.017 55.6142 10.2806 55.7894C10.5149 55.9646 10.8371 56.0084 11.1886 55.9208C11.54 55.8332 11.789 55.6726 11.9354 55.4098C12.0965 55.1324 12.1258 54.8258 12.0526 54.4754C11.9647 54.1395 11.789 53.8767 11.54 53.7161C11.3643 53.6139 11.1739 53.5555 10.9689 53.5555C10.8371 53.5409 10.7346 53.5555 10.6174 53.5847ZM11.2911 51.3654C11.3204 51.4968 11.3204 51.5844 11.2911 51.6428C11.2618 51.6866 11.2032 51.7158 11.1153 51.7304L9.53371 51.9932C9.44584 52.0078 9.38726 52.0078 9.35797 51.964C9.31403 51.9202 9.28475 51.8326 9.25546 51.7158L9.1383 51.7304L9.32868 52.8255L9.44584 52.7963C9.41655 52.6503 9.41655 52.5627 9.44584 52.5189C9.46048 52.4604 9.51906 52.4312 9.62157 52.4166L11.1886 52.1538C11.2911 52.1246 11.3496 52.1538 11.3936 52.183C11.4229 52.2122 11.4522 52.3144 11.4815 52.4604L11.6133 52.4312L11.4229 51.3362L11.2911 51.3654ZM22.5236 51.0442V51.1172C22.5236 51.3362 22.875 51.3362 22.875 51.1172V51.0442C22.875 50.942 22.7872 50.8836 22.6993 50.8836C22.6114 50.869 22.5236 50.9274 22.5236 51.0442ZM20.8101 51.0442C21.0152 51.0442 21.0152 50.7084 20.8101 50.7084C20.5905 50.7084 20.5905 51.0442 20.8101 51.0442ZM58.0663 51.0442C58.2859 51.0442 58.2859 50.7084 58.0663 50.7084C57.8466 50.7084 57.8466 51.0442 58.0663 51.0442ZM19.2285 50.6062C19.4482 50.6062 19.4482 50.2703 19.2285 50.2703C18.9942 50.2703 18.9942 50.6062 19.2285 50.6062ZM57.1144 49.2629V49.3213C57.1144 49.5257 57.4512 49.5257 57.4512 49.3213V49.2629C57.4512 49.1607 57.3633 49.1023 57.2755 49.1023C57.2022 49.1023 57.1144 49.1461 57.1144 49.2629ZM48.5326 48.8833C48.43 49.0439 48.4886 49.2483 48.6351 49.3505C48.884 49.4965 49.1916 49.5403 49.4698 49.4673C49.6456 49.4235 49.7481 49.2337 49.7041 49.0439C49.6602 48.8687 49.4698 48.7519 49.2941 48.8103C49.2794 48.8249 49.2502 48.8249 49.2209 48.8249H49.1916H49.1184C49.1037 48.8249 49.0744 48.8103 49.0451 48.8103C49.0451 48.8103 48.9719 48.7665 48.9573 48.7665C48.9133 48.7373 48.8547 48.7081 48.7962 48.7081C48.7083 48.7081 48.5911 48.7811 48.5326 48.8833ZM21.103 48.9417C21.3227 48.9417 21.3227 48.6059 21.103 48.6059C20.8834 48.6059 20.8834 48.9417 21.103 48.9417ZM10.5295 48.3284C10.4856 48.3284 10.471 48.3722 10.471 48.4306C10.4856 48.4598 10.5003 48.489 10.5442 48.5037C10.5735 48.5182 10.5881 48.5328 10.6174 48.5475C10.6467 48.562 10.6613 48.5766 10.6906 48.5913C10.7492 48.6351 10.8078 48.6935 10.8517 48.7519C10.8957 48.8103 10.925 48.8979 10.9542 49.0147C10.9689 49.1315 10.9103 49.2045 10.7639 49.2045L9.2701 49.3797C9.15294 49.3943 9.06507 49.3797 9.02114 49.3505C8.94792 49.3067 8.93327 49.2191 8.91863 49.0731L8.78683 49.0877L8.91863 50.1973L9.05043 50.1827C9.03578 50.0367 9.05043 49.9491 9.09436 49.9053C9.1383 49.8615 9.21152 49.8177 9.34332 49.8031L10.6174 49.6425C10.7931 49.6425 10.9103 49.6425 10.9689 49.6863C11.0275 49.7009 11.0568 49.7885 11.0714 49.8907C11.086 50.0221 11.0714 50.1097 11.0421 50.1827C11.0128 50.2557 10.9689 50.2995 10.925 50.3433C10.8957 50.3579 10.881 50.3725 10.8664 50.3871C10.8517 50.3871 10.8224 50.4163 10.7931 50.4163C10.7492 50.4455 10.7199 50.4601 10.7346 50.4747C10.7346 50.5478 10.7931 50.577 10.8957 50.5624L11.2764 50.5185C11.335 50.5039 11.3496 50.4748 11.3496 50.4017C11.3204 50.4017 11.2618 50.2557 11.2178 49.9783L11.086 48.8687C11.0714 48.7227 11.0714 48.6351 11.1007 48.6059C11.13 48.5621 11.13 48.5182 11.13 48.4598C11.13 48.416 11.1007 48.3868 11.0714 48.3722C11.0714 48.3722 11.0421 48.3722 11.0128 48.3722H10.9689C10.9396 48.3722 10.8957 48.3576 10.8664 48.3576C10.8224 48.3576 10.7785 48.343 10.7346 48.343C10.6906 48.343 10.6467 48.3284 10.6174 48.3284C10.5881 48.3284 10.5735 48.3284 10.5442 48.3284H10.5295ZM47.1853 48.0656C46.8924 48.5913 46.5848 49.2483 46.8924 49.8323C47.156 50.3141 47.6978 50.5624 48.1957 50.3141C48.5911 50.1243 48.2543 49.5257 47.8589 49.7301C47.6099 49.8469 47.4489 49.4527 47.4489 49.2775C47.4489 48.9709 47.6246 48.6789 47.771 48.416C47.9321 48.1532 47.6832 47.905 47.4635 47.905C47.3463 47.905 47.2438 47.9488 47.1853 48.0656ZM68.1565 47.1604C68.4347 47.3502 68.6105 47.5692 68.6837 47.8028C68.7569 48.0364 68.7862 48.2846 68.7569 48.5182L68.7276 48.8833C68.713 49.0585 68.669 49.1753 68.5958 49.2191C68.5226 49.2775 68.3908 49.2921 68.2004 49.2629L65.8573 49.0439C65.6522 49.0147 65.5058 48.9709 65.4472 48.8979C65.3886 48.8249 65.374 48.6643 65.4033 48.4306L65.3008 48.416L65.1543 49.9345L65.2715 49.9491C65.2861 49.7447 65.33 49.6279 65.3886 49.5695C65.4765 49.5111 65.6083 49.5111 65.8133 49.5257L68.1565 49.7739C68.3615 49.7739 68.5079 49.8323 68.5665 49.9053C68.6251 49.9783 68.6397 50.1389 68.6251 50.3725L68.7276 50.3871L68.9326 48.2116C68.9473 48.1386 68.9619 48.051 68.9619 47.9926C68.9766 47.905 68.9912 47.832 68.9912 47.759C69.0205 47.613 69.0498 47.4524 69.0644 47.3064L68.1565 47.029V47.1604ZM10.7639 46.3281C10.7639 46.4595 10.7639 46.5471 10.7346 46.6056C10.7053 46.6494 10.6467 46.6786 10.5442 46.6786L8.94792 46.7808C8.87469 46.7954 8.78683 46.7516 8.77218 46.737C8.74289 46.6932 8.7136 46.6056 8.69896 46.4595L8.5818 46.4741L8.65502 47.5838H8.77218C8.77218 47.4378 8.77218 47.3502 8.80147 47.2918C8.81612 47.2334 8.90398 47.2188 8.97721 47.2188L10.5735 47.1166C10.676 47.1166 10.7492 47.1312 10.7639 47.175C10.7931 47.2042 10.8224 47.3064 10.8371 47.4524L10.9542 47.4378L10.881 46.3281H10.7639ZM51.2565 44.6199L61.83 45.8609C62.0496 45.8755 62.035 45.5397 61.83 45.5251L51.2565 44.284C51.2418 44.284 51.2418 44.284 51.2272 44.284C51.0368 44.284 51.0515 44.5906 51.2565 44.6199ZM66.9263 43.5102L66.897 44.4008L66.9995 44.4154C67.0142 44.2694 67.0435 44.138 67.1021 44.0796C67.1606 44.0358 67.2631 44.0066 67.4389 44.0066L68.3176 44.0212C68.5519 44.0358 68.7423 44.0942 68.8448 44.2548C68.9473 44.3862 69.0059 44.5615 68.9912 44.7805C68.9912 45.2477 68.7716 45.4667 68.3322 45.4521L67.2631 45.4229C67.146 45.4229 67.0874 45.3791 67.0581 45.3353C67.0142 45.2769 66.9849 45.1455 66.9849 44.9557H66.8677L66.8238 46.1967H66.941C66.9556 46.0507 66.9995 45.9631 67.0435 45.9047C67.0874 45.8609 67.1899 45.8463 67.3217 45.8609L68.3908 45.8755C68.8741 45.8755 69.123 45.5543 69.1377 44.9119C69.1377 44.6053 69.0791 44.357 68.9473 44.1818C68.8155 43.992 68.6105 43.9044 68.3322 43.9044L67.3803 43.8752C67.146 43.8898 67.0142 43.7584 66.9995 43.5394H66.9263V43.5102ZM27.0195 42.97C26.0236 43.0868 25.2035 43.7146 25.3353 44.7951C25.4525 45.7879 26.1262 46.4887 27.0781 46.4887C27.1366 46.9122 27.2831 47.3064 27.5906 47.5984C27.5321 48.2846 27.7224 48.9855 28.2643 49.4381C28.8501 49.9053 29.6116 49.9637 30.2706 49.6425C30.666 49.4381 30.3292 48.8541 29.9338 49.0585C29.1137 49.4673 28.3375 48.8103 28.2496 48.0072C28.4693 48.0948 28.7036 48.1386 28.9379 48.1532C29.2015 48.6351 29.8752 48.8103 30.3878 48.5037C30.7539 48.2846 30.4024 47.7006 30.0363 47.9196C29.9631 47.9634 29.8752 47.978 29.8166 47.978C30.1095 47.832 30.3438 47.5838 30.4464 47.2042C30.5782 46.7954 29.9191 46.6056 29.802 47.029C29.7288 47.2918 29.348 47.467 29.1137 47.467C28.9526 47.4816 28.7915 47.4524 28.6597 47.4086C28.235 47.3064 27.9275 47.0728 27.8103 46.6494C27.6346 45.9777 27.8542 45.2039 28.1032 44.576C28.2496 44.1672 27.576 43.992 27.4295 44.4008C27.2831 44.8097 27.1366 45.3207 27.0927 45.8317C26.5216 45.8463 26.1408 45.3645 26.0383 44.7951C25.9211 44.1234 26.4191 43.7292 27.0341 43.6562C27.4442 43.5978 27.4735 42.97 27.0781 42.97C27.0341 42.97 27.0195 42.97 27.0195 42.97ZM10.7199 42.6342C10.7053 42.7948 10.676 42.9116 10.6321 42.9554C10.5735 42.9992 10.4856 43.0284 10.3392 43.0284L8.96256 43.043C8.8454 43.043 8.77218 43.0138 8.7136 42.9846C8.66967 42.9408 8.64038 42.8532 8.64038 42.7218H8.50858L8.52322 43.5686H8.64038C8.65502 43.335 8.75754 43.2328 8.93327 43.2328H10.3831C10.3245 43.2474 10.2952 43.2766 10.2513 43.3204C10.1927 43.3642 10.1341 43.408 10.0609 43.481C10.0023 43.5394 9.92911 43.5978 9.85589 43.6708C9.78267 43.7438 9.6948 43.8168 9.60693 43.8898C9.43119 44.0504 9.25546 44.211 9.10901 44.357C8.96256 44.4884 8.81611 44.6199 8.68431 44.7367L8.53786 44.8973V45.0725L10.3245 45.0579C10.471 45.0579 10.5735 45.0725 10.6321 45.1309C10.6906 45.1893 10.7199 45.2915 10.7199 45.4521H10.8224V44.5176H10.7053C10.7199 44.6929 10.676 44.8097 10.6028 44.8681C10.5149 44.9119 10.3685 44.9411 10.1048 44.9411H9.10901C9.38726 44.6491 9.65086 44.3862 9.92911 44.1234C10.222 43.8606 10.5003 43.6124 10.8078 43.3496V43.0138C10.8078 42.897 10.8224 42.7802 10.8078 42.6634H10.7199V42.6342ZM68.4787 41.2179C68.3176 41.2179 68.1711 41.2763 68.0833 41.3785C68.0247 41.4369 67.9954 41.4953 67.9368 41.5537C67.9075 41.6267 67.8782 41.6851 67.8343 41.7581C67.8196 41.8019 67.7904 41.8311 67.7757 41.8749C67.7611 41.9041 67.7464 41.9333 67.7318 41.9625C67.7025 41.9917 67.7025 42.0355 67.6732 42.0647C67.6586 42.0939 67.6439 42.1231 67.6293 42.1523C67.556 42.2545 67.4535 42.3129 67.3217 42.3275C67.2339 42.3275 67.1313 42.2983 67.0728 42.2545C67.0142 42.2107 66.9995 42.1231 66.9849 41.9917C66.9849 41.8749 67.0142 41.7873 67.0728 41.6997C67.1021 41.6413 67.146 41.6121 67.2192 41.5683C67.2631 41.5391 67.3364 41.4953 67.4242 41.4661V41.3931L66.9703 41.4077C66.941 41.4953 66.9263 41.5829 66.9117 41.6705C66.897 41.7581 66.897 41.8603 66.897 41.9479C66.9117 42.1815 66.9703 42.3567 67.0874 42.4589C67.2046 42.5757 67.3364 42.6196 67.5121 42.6196C67.6878 42.6049 67.8343 42.5465 67.9222 42.4297C67.9368 42.4005 67.9661 42.3713 67.9807 42.3421C68.01 42.3129 68.0247 42.2837 68.0393 42.2545C68.0686 42.2107 68.0979 42.1815 68.1125 42.1523C68.1272 42.1085 68.1418 42.0793 68.1565 42.0501C68.1711 42.0063 68.1858 41.9771 68.2004 41.9479C68.215 41.9187 68.2297 41.8749 68.2443 41.8311C68.2736 41.7727 68.3176 41.7143 68.3469 41.6559C68.4054 41.5537 68.5079 41.4953 68.6397 41.4807C68.7569 41.4807 68.8741 41.5245 68.9473 41.5975C69.0205 41.6851 69.0498 41.7873 69.0498 41.9187C69.0498 42.0209 69.0205 42.1085 68.9619 42.1815C68.9034 42.2545 68.8301 42.3275 68.7716 42.3713C68.5812 42.4735 68.4933 42.5319 68.4787 42.5465C68.4787 42.5757 68.5079 42.5904 68.5372 42.5904C68.5958 42.6196 68.713 42.6196 68.9034 42.6196C69.0791 42.6049 69.167 42.3713 69.1816 41.9041C69.167 41.6705 69.0937 41.5099 68.9619 41.3785C68.8155 41.2909 68.6544 41.2179 68.4787 41.2179ZM32.892 41.6267C33.5803 42.97 33.3606 44.576 34.3858 45.7879C34.6787 46.1237 35.1473 45.6419 34.869 45.3207C33.9171 44.211 34.1075 42.5611 33.4632 41.2909C33.4046 41.1741 33.3021 41.1157 33.1996 41.1157C32.9799 41.1011 32.7456 41.3639 32.892 41.6267ZM47.361 40.59C46.0137 40.6046 44.7103 40.7945 43.4362 41.1887C43.0115 41.3055 43.2019 41.9625 43.6119 41.8311C43.6412 41.8311 43.6705 41.8019 43.6998 41.8019C44.3149 42.5319 45.1496 42.9846 46.1015 43.1014C46.5409 43.1598 46.5262 42.4735 46.1015 42.4151C45.4718 42.3567 44.886 42.0501 44.432 41.6121C45.1496 41.4369 45.8819 41.3347 46.5995 41.2909C46.6434 41.3055 46.658 41.3201 46.702 41.3347C46.9363 41.4077 46.9363 41.7289 46.7752 41.8749C46.453 42.1669 46.9363 42.6488 47.2585 42.3567C47.5953 42.0647 47.6392 41.5975 47.4781 41.2325C47.8003 41.1449 47.7564 40.59 47.361 40.59ZM8.55251 41.6413H8.66967C8.66967 41.5099 8.69896 41.4077 8.72825 41.3639C8.75754 41.3201 8.81611 41.2909 8.91863 41.3055L10.5149 41.3931C10.6174 41.3931 10.676 41.4223 10.7053 41.4661C10.7346 41.5245 10.7492 41.6121 10.7346 41.7581H10.8517L10.8957 40.6631L10.7931 40.6485C10.7785 40.7945 10.7785 40.8675 10.7492 40.9259C10.7053 40.9697 10.6467 40.9697 10.5442 40.9697L8.93327 40.8675C8.8454 40.8675 8.78683 40.8383 8.75754 40.8091C8.72825 40.7653 8.7136 40.6631 8.7136 40.5316H8.59644L8.55251 41.6413ZM42.5136 40.2396C42.1182 40.3856 42.2793 41.0427 42.704 40.8967C44.4028 40.2834 46.1455 40.079 47.9468 40.2542C48.3861 40.298 48.3861 39.6118 47.9468 39.5826C47.5221 39.5388 47.0974 39.5096 46.6727 39.5096C45.2522 39.5096 43.8755 39.7578 42.5136 40.2396ZM36.89 39.568C36.0553 41.2617 37.4172 42.6926 37.4172 44.3862C37.4172 44.8243 38.0909 44.8243 38.0909 44.3862C38.0909 42.9116 36.7729 41.3201 37.4612 39.9038C37.593 39.641 37.3587 39.3928 37.1243 39.3928C37.0511 39.3928 36.9486 39.4512 36.89 39.568ZM68.3322 38.9256C68.1565 38.9402 68.01 38.9986 67.9222 39.1154C67.8782 39.1738 67.8489 39.2322 67.805 39.2906C67.7611 39.3636 67.7318 39.422 67.7171 39.5096C67.7025 39.5388 67.6878 39.5826 67.6586 39.6118C67.6439 39.6556 67.6293 39.6848 67.6 39.714C67.5853 39.7578 67.5853 39.787 67.556 39.8162C67.5414 39.8454 67.5267 39.8746 67.5121 39.9038C67.4535 40.006 67.351 40.079 67.2192 40.079C67.1167 40.0936 67.0288 40.079 66.9556 40.0206C66.897 39.9768 66.8677 39.9038 66.8531 39.7578C66.8531 39.6556 66.8677 39.5534 66.941 39.4658C66.9556 39.4074 66.9995 39.3782 67.0581 39.349C67.1313 39.3198 67.1899 39.276 67.2631 39.2322V39.1592L66.8092 39.203C66.7945 39.2906 66.7652 39.3782 66.7506 39.4658C66.7506 39.5534 66.7506 39.6556 66.7506 39.7432C66.7652 39.9914 66.8385 40.152 66.9556 40.2542C67.0874 40.3564 67.2339 40.4002 67.3803 40.3856C67.5707 40.3856 67.7025 40.298 67.7904 40.1958C67.8196 40.152 67.8343 40.1374 67.8636 40.1082C67.8636 40.079 67.8929 40.0498 67.9222 40.006C67.9514 39.9768 67.9661 39.9476 67.9807 39.9038C67.9954 39.8746 68.01 39.8308 68.0247 39.8016C68.0393 39.7578 68.054 39.7286 68.0833 39.6994C68.0833 39.6702 68.0979 39.6264 68.1125 39.5972C68.1418 39.5242 68.1711 39.4658 68.2151 39.422C68.259 39.3198 68.3615 39.2468 68.4933 39.2468C68.6251 39.2322 68.7276 39.276 68.8155 39.349C68.8741 39.422 68.9326 39.5388 68.9326 39.6556C68.9473 39.7724 68.918 39.8454 68.8594 39.933C68.8008 40.006 68.7276 40.079 68.669 40.1228C68.4787 40.2396 68.3908 40.298 68.3908 40.3272C68.3908 40.3418 68.4054 40.3564 68.464 40.371C68.5079 40.3856 68.6544 40.3856 68.8301 40.371C69.0059 40.371 69.0791 40.1228 69.0644 39.6556C69.0352 39.4366 68.9619 39.2614 68.8301 39.1446C68.6983 39.0278 68.5665 38.9694 68.4201 38.9694H68.3322V38.9256ZM28.5425 39.6848C28.44 40.1082 29.099 40.2834 29.2015 39.86C29.3919 39.0132 30.3292 39.9184 30.5196 40.2396C30.8418 40.7945 31.0907 41.3639 31.0321 42.0209C30.9882 42.4589 31.6765 42.4589 31.7204 42.0209C31.8083 41.0427 31.2665 39.7286 30.461 39.1446C30.212 38.9694 29.9191 38.8818 29.6262 38.8818C29.143 38.8818 28.6743 39.13 28.5425 39.6848ZM8.74289 38.6335L8.86005 38.6482C8.87469 38.5021 8.91863 38.3999 8.93327 38.3561C8.94792 38.3123 8.99185 38.3123 9.03579 38.3123L9.66551 38.3707C9.8266 38.3707 9.88518 38.4729 9.84124 38.6628C9.8266 38.9548 9.70944 39.1154 9.48977 39.13V39.2468L10.1927 39.3198L10.2074 39.203C10.1048 39.1738 10.0316 39.13 10.0023 39.0716C9.9584 38.9986 9.94376 38.8818 9.9584 38.7358C9.98769 38.6044 10.0023 38.5167 10.0316 38.4729C10.0609 38.4291 10.1195 38.4145 10.1927 38.4291L10.8078 38.4729C10.8517 38.4875 10.881 38.5021 10.8957 38.5459C10.925 38.5897 10.925 38.6774 10.9103 38.8088C10.8957 39.0132 10.8664 39.1592 10.8078 39.2614C10.7492 39.3636 10.6174 39.4658 10.427 39.5534V39.6848L10.9542 39.6118L11.1446 37.6845L11.0275 37.6699C10.9982 37.8597 10.9689 37.9619 10.9396 37.9911C10.9103 38.0203 10.8517 38.0495 10.7785 38.0203L9.07972 37.8889C9.03578 37.8743 9.0065 37.8597 8.99185 37.8159C8.97721 37.7721 8.96256 37.6553 8.99185 37.4947L8.87469 37.4801L8.74289 38.6335ZM29.2455 37.3779C27.3856 37.5531 26.9609 39.86 27.3563 41.3347C27.9128 43.4664 29.9045 43.9044 31.1639 45.4375C31.5301 45.9047 31.7058 46.8538 32.4673 46.7954C33.1849 46.737 33.346 45.9923 33.4046 45.4375C33.4339 44.9995 32.7602 45.0141 32.7163 45.4375C32.5405 45.5543 32.3502 45.6711 32.1744 45.7733C32.1305 45.6857 32.0866 45.5981 32.0426 45.5251C31.9255 45.4229 31.8083 45.1455 31.6911 45.0287C31.4275 44.7075 31.1347 44.4592 30.8125 44.211C30.1095 43.6708 29.3041 43.2328 28.7183 42.5611C27.9128 41.6267 27.6053 40.152 28.1325 39.0132C28.6304 37.9473 29.7434 37.8597 30.6221 38.4437C31.1639 38.8088 32.1158 39.7578 32.1451 40.4294C32.1598 40.8529 32.8481 40.8529 32.8188 40.4294C32.7602 38.9694 30.8857 37.3487 29.4066 37.3487C29.3773 37.3633 29.3041 37.3633 29.2455 37.3779ZM24.5592 37.3049C24.2663 37.6261 24.7496 38.1079 25.0425 37.7721C25.4818 37.3049 26.463 37.5239 26.6387 38.1517C26.7412 38.5751 27.4002 38.3999 27.2831 37.9765C27.0927 37.2757 26.3605 36.8523 25.6575 36.8523C25.2475 36.8523 24.8521 36.9983 24.5592 37.3049ZM66.9995 37.6553C66.7652 37.5823 66.6481 37.4071 66.5895 37.1151C66.5748 36.8523 66.6481 36.6186 66.8384 36.4726C67.0288 36.3558 67.2485 36.2682 67.5121 36.239C67.7611 36.2098 68.01 36.2244 68.2151 36.312C68.3176 36.3558 68.4054 36.4142 68.4787 36.5018C68.5665 36.5894 68.6105 36.7063 68.6251 36.8523C68.6397 36.9983 68.6251 37.1151 68.5812 37.2173C68.5372 37.3195 68.464 37.4071 68.3761 37.4801C68.2004 37.6115 67.9661 37.6991 67.7171 37.7283C67.6439 37.7429 67.5707 37.7429 67.4828 37.7429C67.3071 37.7429 67.146 37.7137 66.9995 37.6553ZM67.4535 35.8302C67.1021 35.874 66.8384 36.02 66.6627 36.2536C66.487 36.4872 66.4284 36.7793 66.4577 37.1297C66.5016 37.4655 66.6627 37.7137 66.8824 37.9035C67.1167 38.0933 67.4096 38.1663 67.7464 38.1225C68.0979 38.0787 68.3615 37.9181 68.5226 37.6845C68.6983 37.4509 68.7569 37.1589 68.713 36.8231C68.669 36.4726 68.5226 36.1952 68.3029 36.0054C68.1125 35.8594 67.8929 35.7864 67.6293 35.7864C67.5853 35.8156 67.5268 35.8156 67.4535 35.8302ZM9.31403 34.5453L9.43119 34.5599C9.48977 34.3409 9.60693 34.2387 9.76802 34.2825L11.1886 34.5307C11.1446 34.5453 11.1153 34.5599 11.0568 34.6037C10.9982 34.6329 10.9396 34.6768 10.8664 34.7206C10.7785 34.7644 10.6906 34.8228 10.6028 34.8666C10.5149 34.925 10.4124 34.9834 10.3099 35.0272C10.1048 35.1732 9.91447 35.29 9.73873 35.3922C9.56299 35.509 9.41655 35.6112 9.25546 35.6988L9.07972 35.8302L9.05043 35.9908L10.8078 36.312C10.9542 36.3412 11.0421 36.3704 11.1007 36.4288C11.1446 36.5018 11.1593 36.604 11.1153 36.7647L11.2325 36.7793L11.3936 35.874L11.2618 35.8448C11.2325 36.02 11.1886 36.1222 11.1153 36.166C11.0275 36.2098 10.8664 36.1952 10.6028 36.1514L9.66551 35.9908C9.97305 35.7572 10.3099 35.5382 10.6321 35.3338C10.9542 35.144 11.2764 34.925 11.6133 34.7206C11.6425 34.6183 11.6718 34.5015 11.6865 34.3993C11.7158 34.2679 11.7304 34.1657 11.7597 34.0489L11.6425 34.0197C11.6133 34.1803 11.5547 34.2679 11.4961 34.3117C11.4375 34.3555 11.335 34.3701 11.1886 34.3409L9.8266 34.1073C9.70944 34.0927 9.63622 34.0489 9.59228 34.0051C9.54835 33.9613 9.53371 33.8591 9.56299 33.7423L9.44584 33.7277L9.31403 34.5453ZM24.6763 36.02C24.5299 36.093 24.3834 36.2244 24.237 36.3558C23.9295 36.6479 24.3981 37.1297 24.7203 36.8377C25.5111 36.1076 26.668 36.2536 27.2684 37.1589C27.5028 37.5093 28.0886 37.1735 27.8542 36.8085C27.2831 35.9324 26.3165 35.5528 25.4086 35.7426C25.6429 34.7644 26.7559 33.9613 27.6931 34.5891C28.0739 34.8228 28.4107 34.2387 28.0446 33.9905C27.7224 33.7861 27.371 33.6985 27.0341 33.6985C25.8333 33.6839 24.7056 34.7936 24.6763 36.02ZM35.6159 32.6034C35.0155 33.2605 34.9569 34.2679 35.5134 34.9688C36.0553 35.6112 36.9632 35.7426 37.7101 35.4798C37.9151 36.0784 38.3838 36.5018 39.0428 36.6333C39.4821 36.7063 39.6579 36.0492 39.2332 35.9762C38.7206 35.8886 38.3398 35.5382 38.2813 34.998C38.2666 34.7352 38.003 34.5599 37.7687 34.706C37.2708 34.998 36.5678 35.071 36.1138 34.6183C35.6892 34.2095 35.6892 33.5233 36.0846 33.0999C36.3189 32.8517 36.0846 32.5158 35.8356 32.5158C35.7477 32.5012 35.6745 32.5304 35.6159 32.6034ZM37.7833 31.7858C37.6515 32.7349 38.2227 33.9759 38.911 34.6329C39.4968 35.2024 40.2876 35.509 41.0784 35.5382C40.6976 36.385 39.9947 37.0421 39.116 37.3633C38.706 37.4947 38.8817 38.1663 39.3064 38.0203C40.5219 37.5823 41.4592 36.6332 41.8692 35.3922C41.8839 35.363 41.8839 35.3338 41.8839 35.3046C41.9717 35.1002 41.8839 34.8082 41.591 34.852C39.9068 35.0418 38.2373 33.5525 38.457 31.7858C38.4863 31.5668 38.3252 31.4646 38.1641 31.4646C37.9884 31.4646 37.798 31.5668 37.7833 31.7858ZM9.73873 32.4866L9.85589 32.5158C9.88518 32.3406 9.9584 32.2238 10.0463 32.1946C10.1195 32.1654 10.2659 32.1654 10.4856 32.2238L12.8434 32.7933C13.0338 32.8517 13.1802 32.9101 13.2095 32.9831C13.2681 33.0561 13.2681 33.2167 13.2095 33.4211L13.3267 33.4503L13.6782 32.0048L13.561 31.9756C13.5171 32.1654 13.4438 32.2676 13.3706 32.3114C13.2974 32.3552 13.1509 32.3552 12.9313 32.2968L10.5588 31.7128C10.3831 31.669 10.2513 31.6106 10.1927 31.5376C10.1341 31.4646 10.1341 31.3478 10.1927 31.1726L10.0756 31.1434L9.73873 32.4866ZM38.9989 31.085C38.7792 33.1291 40.9173 35.1294 42.9822 34.4139C43.3923 34.2825 43.2165 33.6255 42.7918 33.7715C41.1223 34.3409 39.4968 32.7057 39.6725 31.085C39.7018 30.866 39.5261 30.7638 39.365 30.7638C39.1892 30.7638 39.0135 30.866 38.9989 31.085ZM53.7168 30.6177C53.7314 31.158 53.9511 31.6836 54.3465 32.0632C54.6687 32.3552 55.1666 31.8734 54.8444 31.5814C54.5662 31.3186 54.4051 31.012 54.3904 30.6323C54.3904 30.4133 54.2147 30.2965 54.039 30.2965C53.8632 30.2965 53.7021 30.3987 53.7168 30.6177ZM36.4946 32.5158C36.6118 32.9393 37.2561 32.7641 37.1536 32.3406C36.9047 31.3624 37.5637 29.6979 38.8524 29.9607C39.2771 30.0483 39.4675 29.3913 39.0281 29.3037C38.8817 29.2745 38.7499 29.2599 38.6181 29.2599C37.0658 29.2599 36.1431 31.1288 36.4946 32.5158ZM30.2853 28.34C29.1576 29.2891 29.3334 30.5739 29.5823 31.8588C29.6702 32.2822 30.3292 32.107 30.2413 31.6836C30.0656 30.72 29.8313 29.7271 30.6221 28.9533C31.3543 28.2378 32.4087 28.3108 33.1849 28.8949C33.5364 29.1577 33.8879 28.5736 33.5217 28.2962C33.0531 27.9458 32.482 27.7706 31.9108 27.7706C31.325 27.7706 30.7539 27.9604 30.2853 28.34ZM49.2648 28.632C48.9573 28.9533 49.4259 29.4351 49.7481 29.1139C49.8359 29.0117 49.9677 28.9095 50.0703 28.8073C51.0954 29.9023 50.5682 31.6836 48.9866 31.8588C48.5619 31.9172 48.5619 32.5888 48.9866 32.545C51.0515 32.2968 51.9887 29.9753 50.6707 28.4422C51.7398 27.9312 53.0871 27.9896 53.4385 29.4059C53.5411 29.8293 54.2001 29.6541 54.0829 29.2161C53.8632 28.2962 53.1017 27.61 52.1498 27.4494C52.0034 27.4202 51.8716 27.4202 51.7251 27.4202C50.7732 27.4494 49.9092 27.9604 49.2648 28.632ZM47.4489 27.1574C47.2145 27.4494 46.9363 27.7414 46.5555 27.829C46.1455 27.9312 45.7061 27.756 45.589 27.3472C45.4865 26.9238 44.8275 27.099 44.9446 27.5078C45.1057 28.0918 45.6329 28.486 46.2626 28.5298C46.9509 28.559 47.5221 28.1356 47.9321 27.61C48.1372 27.3618 47.9028 27.0114 47.6685 27.0114C47.5953 27.026 47.5074 27.0698 47.4489 27.1574ZM42.8504 26.8362C42.5136 27.4494 42.6307 28.2232 42.8651 28.8511C43.0262 29.2453 43.6705 29.0847 43.5241 28.6758C43.3337 28.194 43.0847 26.5733 44.1245 26.8508C44.5346 26.953 44.7249 26.3105 44.3002 26.2083C44.1831 26.1791 44.0806 26.1645 43.9634 26.1645C43.5094 26.1499 43.0994 26.4127 42.8504 26.8362ZM45.9258 26.2375C45.7501 26.6317 46.3505 26.9822 46.5116 26.5879C46.9509 25.5513 48.4593 25.6681 48.5619 26.8508C48.6058 27.2888 49.2941 27.3034 49.2648 26.8508C49.2062 26.0623 48.6644 25.3469 47.8443 25.1863C47.7417 25.1571 47.6392 25.1571 47.5367 25.1571C46.8484 25.1571 46.2041 25.6097 45.9258 26.2375ZM29.597 70.0397C30.007 69.1199 30.3878 68.2146 30.7539 67.2802C31.0761 67.4408 31.4422 67.4846 31.823 67.4262C31.4568 68.4337 31.1054 69.4557 30.7685 70.4632C30.3731 70.3317 29.9777 70.1857 29.597 70.0397ZM31.0907 70.58C31.4275 69.4995 31.7937 68.4337 32.2037 67.3824C32.482 67.324 32.7602 67.2218 32.9799 67.1196C33.0238 67.105 33.0385 67.0904 33.0678 67.0758C32.8774 68.3753 32.6138 69.6601 32.2916 70.9304C31.8962 70.8428 31.5008 70.7114 31.0907 70.58ZM32.6431 71.018C32.9799 69.6601 33.2581 68.273 33.4485 66.886C33.7561 66.7108 34.0343 66.5064 34.3126 66.2581C34.4297 66.1413 34.5615 65.9953 34.6933 65.8639C34.3418 67.6598 34.005 69.4557 33.6682 71.2516C33.3167 71.1932 32.9799 71.1056 32.6431 71.018ZM38.2373 65.6595C38.1495 67.689 38.047 69.7039 37.9298 71.7334C37.6515 71.7334 37.3733 71.7042 37.095 71.7042C37.1683 69.7039 37.2415 67.689 37.3001 65.7033C37.4465 65.7179 37.5783 65.7325 37.7101 65.7325C37.8859 65.7179 38.0616 65.7033 38.2373 65.6595ZM28.1325 69.3535C28.1325 69.3535 28.1471 69.3389 28.1471 69.3243C28.7183 68.0686 29.3919 66.9152 29.9045 65.6449C29.9631 66.1851 30.1095 66.7254 30.4756 67.0904C30.0949 68.0394 29.7141 68.9885 29.2894 69.9083C28.894 69.7331 28.5132 69.5579 28.1325 69.3535ZM35.4109 71.529C35.7038 69.5141 35.982 67.4992 36.2749 65.4697V65.4405C36.3775 65.4697 36.48 65.4989 36.6118 65.5281C36.7436 65.5573 36.8607 65.6011 36.9779 65.6157C36.9047 67.6306 36.8314 69.6455 36.7582 71.6604C36.2896 71.6312 35.8502 71.5874 35.4109 71.529ZM34.005 71.31C34.3565 69.4411 34.7226 67.5576 35.0741 65.6887C35.0887 65.6449 35.0741 65.6011 35.0594 65.6011C35.4109 65.3529 35.6452 65.3237 35.9528 65.3675V65.3821C35.6599 67.4116 35.367 69.4411 35.0741 71.4852C34.708 71.4414 34.3565 71.383 34.005 71.31ZM38.2813 71.7334C38.3984 69.6893 38.5009 67.6306 38.5742 65.6011C38.5888 65.5719 38.5742 65.5573 38.5742 65.5427C38.7206 65.4989 38.8671 65.4113 38.9989 65.3237C39.1746 65.2361 39.321 65.1339 39.4675 65.0463C39.3503 67.2802 39.4236 69.5141 39.6725 71.7334C39.4382 71.748 39.2039 71.748 38.9549 71.748H38.911C38.6767 71.748 38.4716 71.748 38.2813 71.7334ZM39.8043 64.9149C39.8043 64.8857 39.8043 64.8565 39.7897 64.8273C39.9947 64.6959 40.2144 64.5645 40.4194 64.4331C40.5951 66.8422 40.7855 69.2659 40.9613 71.6604C40.6537 71.6896 40.3315 71.6896 40.0093 71.7042C39.7457 69.4703 39.6725 67.178 39.8043 64.9149ZM40.7269 64.2578C40.9173 64.1556 41.1223 64.068 41.342 63.9804V63.995C41.7081 66.521 42.0889 69.0177 42.455 71.529C42.0742 71.5728 41.6788 71.6166 41.2834 71.6458C41.1077 69.1929 40.932 66.7254 40.7269 64.2578ZM41.6642 63.9074V63.8782C41.8399 63.8198 42.0157 63.776 42.2353 63.7468C42.3671 63.7176 42.5136 63.703 42.6307 63.6738C43.158 66.1997 43.5827 68.7403 43.9488 71.2954C43.568 71.3684 43.1726 71.4414 42.7772 71.4852C42.4111 68.9593 42.045 66.4334 41.6642 63.9074ZM42.9676 63.6446C43.2605 63.6008 43.5534 63.6008 43.8463 63.5716C43.773 63.6008 43.6998 63.6592 43.7291 63.776C44.476 66.1413 45.0325 68.5359 45.4132 70.9596C45.0325 71.0618 44.6517 71.1494 44.2563 71.2224C43.9195 68.6965 43.4948 66.1559 42.9676 63.6446ZM44.0659 63.6884C44.0366 63.6008 43.9927 63.5716 43.9195 63.5716C44.0659 63.5716 44.1977 63.557 44.3588 63.5424C44.5199 63.5278 44.7103 63.5278 44.886 63.5132C45.6329 65.8201 46.3359 68.1708 46.9509 70.5216C46.5555 70.653 46.1601 70.7698 45.7501 70.8866C45.384 68.4337 44.8275 66.0391 44.0659 63.6884ZM45.2375 63.4694C45.3839 63.4402 45.5158 63.3964 45.6183 63.3088C45.6915 63.2504 45.7501 63.2066 45.794 63.1336C46.6727 65.4113 47.4928 67.7036 48.269 70.0251C47.9321 70.1419 47.6246 70.2733 47.2731 70.4048C46.6727 68.0686 45.999 65.7617 45.2375 63.4694ZM27.0781 68.7695C27.9567 66.9006 28.7915 65.0025 29.597 63.0752C29.6702 63.63 29.7434 64.1702 29.802 64.7251C29.8166 64.7835 29.8166 64.8127 29.8166 64.8565C29.3187 66.3895 28.5132 67.7036 27.8542 69.1491C27.8396 69.1637 27.8396 69.1783 27.8396 69.1929C27.5906 69.0761 27.327 68.9301 27.0781 68.7695ZM25.6136 67.835C26.5655 66.1559 27.5321 64.4623 28.484 62.7832C28.7622 62.8562 29.0405 62.9 29.3187 62.8854C28.5132 64.8127 27.6639 66.7254 26.7852 68.6089C26.3898 68.3607 26.009 68.0978 25.6136 67.835ZM24.5445 66.9882C24.5445 66.9736 24.5592 66.959 24.5885 66.9444L27.6199 62.0969C27.6639 62.1845 27.6785 62.3013 27.7078 62.389C27.7371 62.4912 27.7957 62.5496 27.8689 62.5934C27.8835 62.608 27.9128 62.6226 27.9421 62.6226C28.0153 62.6664 28.1032 62.681 28.1764 62.7102C27.2245 64.3455 26.2873 65.9953 25.3646 67.6452C25.0717 67.4116 24.7935 67.2072 24.5445 66.9882ZM23.6219 66.1997C23.6366 66.1851 23.6366 66.1851 23.6366 66.1851C24.8228 64.287 26.0676 62.4182 27.3417 60.5785C27.371 60.9289 27.4149 61.2793 27.5028 61.6297C26.4337 63.3526 25.3646 65.0609 24.2809 66.7838C24.0613 66.5794 23.8416 66.3895 23.6219 66.1997ZM45.9697 62.6518C46.0576 62.1699 45.9551 61.5567 45.9405 61.1917C45.9405 61.1917 45.9405 61.1771 45.9405 61.1625C45.9405 61.1479 45.9258 61.1333 45.9258 61.1041C45.8087 60.6223 45.7061 60.1404 45.589 59.644C46.9509 62.9 48.3275 66.1413 49.6895 69.3827C49.338 69.5725 48.9573 69.7331 48.5765 69.9083C47.771 67.4554 46.907 65.0317 45.9697 62.6518ZM22.5089 65.0463C22.5236 65.0317 22.5382 65.0317 22.5529 65.0025C24.1931 63.0752 25.7454 61.1187 27.2538 59.1038C27.2684 59.4104 27.2684 59.717 27.2831 60.0382C25.9211 61.9801 24.6178 63.9512 23.373 65.9661C23.0801 65.6595 22.7872 65.3529 22.5089 65.0463ZM45.7208 59.1184C45.8672 59.0016 45.999 58.8702 46.1162 58.7388C47.7417 62.0385 49.4112 65.3383 51.0954 68.5797C50.7439 68.8133 50.3632 69.0177 49.9824 69.2221C48.5619 65.8493 47.1413 62.4766 45.7208 59.1184ZM46.3505 58.4468C46.4677 58.2569 46.5848 58.0671 46.6727 57.8627C48.5619 61.1771 50.3778 64.5207 52.1352 67.908C51.8862 68.0832 51.6372 68.2438 51.3883 68.4191C49.6749 65.1047 47.9907 61.7903 46.3505 58.4468ZM21.557 63.922C23.4755 61.6005 25.3793 59.2644 27.2977 56.9283C27.2831 57.4539 27.2684 57.9941 27.2538 58.5344C25.6722 60.6661 24.032 62.7248 22.3185 64.7543C22.3039 64.7689 22.3039 64.7835 22.2892 64.8127C22.0403 64.5207 21.7913 64.2286 21.557 63.922ZM46.8191 57.4685C46.8924 57.2349 46.9363 57.0013 46.9802 56.7677C49.3234 60.0236 51.4762 63.3964 53.4385 66.9006C53.1164 67.178 52.7649 67.4408 52.4281 67.7036C50.6121 64.2578 48.7522 60.8413 46.8191 57.4685ZM19.3896 60.3156C22.1867 58.0379 24.9106 55.6872 27.576 53.2635C27.5467 53.4971 27.5174 53.7453 27.4881 53.9789H27.4735C24.9692 56.3734 22.4503 58.768 19.9314 61.1625C19.7704 61.3085 20.0193 61.5567 20.1804 61.3961C22.5821 59.1038 25.0132 56.7823 27.4442 54.49C27.4295 54.6944 27.4149 54.8842 27.4002 55.1032C25.2328 57.6437 23.0068 60.1258 20.7076 62.5496C20.5612 62.7102 20.7955 62.9438 20.9566 62.7832C23.1679 60.4617 25.2914 58.0963 27.371 55.658C27.371 55.9062 27.3417 56.1544 27.3417 56.388L21.3666 63.6738C20.5612 62.6226 19.8582 61.4983 19.2431 60.3302C19.2578 60.3448 19.2871 60.3448 19.3017 60.3448C19.3164 60.3448 19.3457 60.3302 19.3896 60.3156ZM48.6351 53.4387C48.7522 53.3365 48.8401 53.2197 48.928 53.0883C51.9741 55.8186 55.0055 58.5636 58.0516 61.2939C58.0809 61.3085 58.0956 61.3085 58.0956 61.3231C57.9345 61.6151 57.7441 61.9071 57.5537 62.1845C54.5808 59.2644 51.5933 56.3588 48.6351 53.4387ZM49.0598 52.7671C49.1037 52.6357 49.1184 52.4897 49.1184 52.3582C50.8025 53.5701 52.4427 54.8404 54.0243 56.1836C55.5474 57.4977 56.9533 59.0308 58.696 60.0382C58.7399 60.0674 58.7692 60.0674 58.7839 60.0674C58.6228 60.3886 58.4324 60.7099 58.2566 61.0311C55.1959 58.2715 52.1352 55.5266 49.0598 52.7671ZM47.361 52.8255C46.8191 52.6357 46.2626 52.5188 45.7061 52.475C45.9258 52.3728 46.1601 52.2852 46.3944 52.2122C46.702 52.11 47.0974 51.9932 47.4342 52.0954C47.6246 52.1684 47.7857 52.329 47.9761 52.4166C48.1225 52.4897 48.2836 52.5188 48.43 52.5042C48.3861 52.7379 48.2397 52.9277 47.9907 53.0299C47.5953 53.2197 47.9468 53.8037 48.3275 53.6139C51.3443 56.5487 54.3319 59.4834 57.334 62.4328C57.334 62.4473 57.3633 62.4473 57.3633 62.462C57.1729 62.754 56.9679 63.0606 56.7629 63.338C53.8339 60.301 51.0368 57.1619 48.3715 53.9205C48.225 53.7453 47.9907 53.9789 48.1225 54.1541C50.8025 57.4101 53.6143 60.5639 56.5432 63.6008C56.3382 63.8928 56.1185 64.141 55.9135 64.4184C53.1603 61.2355 50.5242 57.9795 48.02 54.6214C47.9614 54.5484 47.8882 54.5338 47.8296 54.5484C48.02 54.3293 47.8443 53.8913 47.4928 54.0081C46.6727 54.2271 45.7794 53.8621 45.34 53.1613C45.9697 53.1467 46.5702 53.2635 47.1853 53.4825C47.2292 53.4971 47.2731 53.5117 47.3024 53.5117C47.6246 53.4971 47.7271 52.9569 47.361 52.8255ZM49.8506 50.9858C49.8652 51.015 49.8799 51.0442 49.9238 51.0588C53.2775 53.1905 56.6311 55.3222 59.9261 57.5269C59.7943 57.8627 59.6479 58.1985 59.5161 58.5198C56.0599 56.023 52.6038 53.5117 49.1476 51.015C49.2062 51.015 49.2648 51.015 49.338 51.015C49.5138 51.0296 49.6895 51.015 49.8506 50.9858ZM50.2753 50.8836C50.495 50.8106 50.7 50.723 50.905 50.5916C50.9197 50.6208 50.9343 50.6208 50.9636 50.6354C54.3319 52.11 57.1437 54.5484 60.4826 56.0668C60.3508 56.4611 60.2044 56.8407 60.0726 57.2203C56.8361 55.0594 53.5557 52.9715 50.2753 50.8836ZM17.6029 56.6655C20.8541 54.5046 24.1638 52.4604 27.5467 50.4894C27.6492 50.5478 27.7664 50.6062 27.8835 50.65C24.7056 53.0299 21.5131 55.4098 18.3352 57.7897C18.1594 57.9211 18.3352 58.2131 18.4963 58.0817C21.6009 55.7456 24.7203 53.4241 27.8542 51.1026C27.8103 51.3508 27.7664 51.6136 27.7371 51.8764C24.5738 54.0665 21.557 56.461 18.6866 59.0454C18.5256 59.1768 18.7745 59.425 18.921 59.2936C21.6888 56.7969 24.6178 54.4753 27.6639 52.3436C27.6492 52.5042 27.6346 52.6941 27.6053 52.8693C27.5613 52.8547 27.5174 52.8693 27.4735 52.9131C24.7496 55.3952 21.9671 57.7897 19.126 60.0966C19.1113 60.0966 19.1113 60.1258 19.0821 60.155C18.5256 59.0162 18.0276 57.8481 17.6029 56.6655ZM17.149 55.3514C17.1636 55.3514 17.1929 55.3368 17.2222 55.3222C20.4587 53.5555 23.7098 51.8034 26.9756 50.0805C27.0195 50.1097 27.0488 50.1389 27.0927 50.1827C27.1366 50.2119 27.1806 50.2557 27.2392 50.2849C23.9295 52.1976 20.6637 54.2271 17.4858 56.3296C17.354 56.0084 17.2515 55.6726 17.149 55.3514ZM51.1979 50.3871C51.2711 50.3433 51.2858 50.2995 51.3151 50.2557C51.3443 50.2265 51.3736 50.1681 51.3883 50.1097C51.4029 50.0221 51.4176 49.9491 51.4322 49.8761C54.5222 51.6136 57.6855 53.2343 60.8927 54.7674C60.7902 55.1032 60.6877 55.439 60.5852 55.7748C57.3047 54.2563 54.5222 51.8618 51.1979 50.3871ZM15.9334 49.2483C18.9649 48.5328 21.9817 47.8174 25.0278 47.0874C25.1157 47.1604 25.2035 47.2188 25.2914 47.2772C24.1638 47.6276 23.0068 47.978 21.8645 48.3284C21.6595 48.4014 21.7474 48.7227 21.9671 48.6643C23.1972 48.2846 24.442 47.905 25.6868 47.5254C25.6868 47.5254 25.6868 47.5254 25.6868 47.5108C25.7893 47.5692 25.8918 47.613 25.9944 47.6276C24.1052 48.343 22.2307 49.0439 20.3415 49.7593C20.1218 49.8323 20.2243 50.1535 20.4294 50.0951C22.3625 49.3651 24.3249 48.6205 26.2726 47.8904C26.258 48.0218 26.258 48.1678 26.2726 48.2846C24.8374 49.0293 23.3583 49.7009 21.8645 50.3287C21.6595 50.4163 21.762 50.7376 21.9524 50.65C23.4315 50.0367 24.8814 49.3797 26.2873 48.6497C26.3165 48.7957 26.3605 48.9563 26.4044 49.0877C25.35 49.6717 24.2809 50.2119 23.1972 50.7084C22.9922 50.796 23.1679 51.088 23.3583 51.0004C24.4274 50.5186 25.4818 49.9929 26.5069 49.4235C26.5801 49.5549 26.6534 49.6717 26.7266 49.8031C23.4755 51.526 20.2536 53.2635 17.0172 55.001C16.9439 54.7528 16.8707 54.49 16.8121 54.2417C16.8268 54.2417 16.8561 54.2417 16.8853 54.2417C18.5988 53.5117 20.2536 52.6941 21.8499 51.745C22.0256 51.6282 21.8499 51.3362 21.6742 51.4384C20.1072 52.3728 18.4816 53.2051 16.8121 53.9059C16.7828 53.9059 16.7535 53.9351 16.7389 53.9497C16.6657 53.7015 16.6071 53.4533 16.5485 53.1905C17.7494 52.5919 18.9503 51.9932 20.1365 51.4092C20.3269 51.307 20.1658 51.015 19.9607 51.1172L16.4607 52.8693C16.4021 52.6211 16.3581 52.3582 16.2996 52.0954C16.9586 51.7888 17.6176 51.4822 18.262 51.1318C18.4523 51.0296 18.2766 50.7376 18.0862 50.8398C17.4711 51.161 16.8561 51.4676 16.2263 51.7596C16.1531 51.3654 16.0652 50.9566 16.0067 50.5624C17.0904 50.1973 18.1594 49.8469 19.2431 49.5111C19.4482 49.4381 19.3749 49.1169 19.1553 49.1753C18.0862 49.5257 17.0172 49.8761 15.9481 50.2119C15.8895 49.8907 15.8456 49.5695 15.8016 49.2337C15.8309 49.2337 15.8456 49.2483 15.8749 49.2483C15.9042 49.2629 15.9188 49.2629 15.9334 49.2483ZM56.1625 48.7081C54.6248 48.2408 53.1164 47.7736 51.5933 47.321C51.5787 47.2334 51.5787 47.1312 51.564 47.0436C55.0055 48.051 58.6228 48.4452 61.9764 49.7447C61.9325 49.9637 61.9032 50.1973 61.8593 50.4163L58.2713 49.3359C58.0663 49.2775 57.9638 49.5987 58.1834 49.6571C59.3843 50.0367 60.5998 50.3871 61.8007 50.7522C61.7274 51.2194 61.6249 51.7012 61.5371 52.1684C60.5559 51.818 59.56 51.4676 58.5788 51.1172C58.3738 51.0296 58.2713 51.3654 58.4763 51.4384C59.4722 51.7888 60.468 52.1538 61.4638 52.5042C61.3174 53.1467 61.1563 53.7891 60.9806 54.4023C57.788 52.8839 54.6541 51.2632 51.564 49.5257C51.5347 49.5111 51.5054 49.5111 51.4762 49.5111C51.5054 49.3505 51.5201 49.1899 51.5347 49.0147C54.6248 50.577 57.7294 52.0662 60.8781 53.4679C61.0684 53.5555 61.2588 53.2635 61.0391 53.1759C57.8612 51.745 54.7126 50.2411 51.5933 48.6935C51.5933 48.6789 51.5787 48.6789 51.564 48.6789C51.5787 48.6059 51.5787 48.5182 51.5787 48.416C53.3507 49.1899 55.1373 49.9491 56.924 50.7084C57.1144 50.796 57.2901 50.5039 57.0851 50.4163C55.2691 49.6425 53.4239 48.8395 51.5933 48.0656V47.6714C53.0724 48.124 54.5662 48.562 56.0599 49.0147C56.0746 49.0293 56.1039 49.0293 56.1185 49.0293C56.2943 49.0293 56.3382 48.7665 56.1625 48.7081ZM15.7138 48.27C18.5988 47.6276 21.4984 46.9998 24.3981 46.3573C24.5006 46.5179 24.6324 46.6786 24.7496 46.8246C21.7767 47.5254 18.8038 48.2262 15.8456 48.9417C15.8163 48.9417 15.8016 48.9709 15.8016 48.9709C15.7577 48.7227 15.7284 48.489 15.7138 48.27ZM51.5201 46.6786C51.5054 46.6056 51.5054 46.5033 51.4908 46.4303C51.4762 46.3719 51.4615 46.3135 51.4615 46.2405C55.0055 46.9852 58.5495 47.7298 62.0936 48.4598C62.1082 48.4744 62.1375 48.4598 62.1375 48.4744C62.0936 48.7811 62.0643 49.0877 62.0203 49.4089C58.6374 48.1094 54.9909 47.7298 51.5201 46.6786ZM15.582 46.883C16.9439 46.4887 18.3498 46.3573 19.7557 46.1967C21.1909 46.0215 22.6261 45.8901 24.0759 45.7149C24.1198 45.8317 24.1638 45.9339 24.2223 46.0507C21.3666 46.6786 18.5256 47.2918 15.6845 47.9196C15.6259 47.5838 15.5966 47.2334 15.582 46.883ZM51.3736 45.8755C51.3444 45.7295 51.2858 45.5689 51.2565 45.3937C54.9177 45.9631 58.6081 46.6494 62.24 47.4232C62.2107 47.6568 62.1961 47.8904 62.1814 48.124C58.5642 47.3794 54.9616 46.6202 51.3736 45.8755ZM15.5087 45.6711C18.3059 45.5543 21.103 45.3791 23.9002 45.1455C23.9148 45.2331 23.9295 45.3207 23.9587 45.3937C22.4357 45.5543 20.9273 45.7295 19.4189 45.9047C18.1155 46.0507 16.8121 46.1821 15.5527 46.5471C15.538 46.2405 15.5234 45.9485 15.5087 45.6711ZM15.4795 44.7221C18.2912 44.6053 21.0884 44.4154 23.8855 44.1672C23.8709 44.1964 23.8709 44.2256 23.8709 44.2402C23.8416 44.43 23.8416 44.6053 23.8562 44.7951C21.0737 45.0287 18.2766 45.2039 15.4941 45.3061C15.5087 45.1163 15.4795 44.9265 15.4795 44.7221ZM15.4648 43.627V43.5102C15.5087 43.4956 15.5234 43.4956 15.5527 43.4664C18.1741 43.043 20.9126 43.262 23.534 43.2912C23.5926 43.2912 23.6219 43.2766 23.6512 43.2474C23.783 43.3496 23.9148 43.4664 24.0613 43.554C24.0173 43.6416 24.0027 43.7146 23.9734 43.8168C21.1323 44.065 18.3205 44.2548 15.4941 44.3716C15.4648 44.138 15.4648 43.8752 15.4648 43.627ZM15.5087 42.1377C17.9837 42.2107 20.4733 42.2983 22.9629 42.4005C23.0801 42.5904 23.1972 42.7802 23.3583 42.9554C20.7516 42.9408 18.0423 42.7218 15.4648 43.1452C15.4795 42.8094 15.4795 42.4735 15.5087 42.1377ZM15.5087 41.8019C15.5087 41.4807 15.538 41.1595 15.5527 40.8383C17.9251 41.2179 20.3122 41.5245 22.6847 41.7727H22.6993C22.7139 41.8603 22.7579 41.9479 22.8018 42.0355C20.3708 41.9771 17.9398 41.8895 15.5087 41.8019ZM52.8088 41.9479C55.9574 41.4953 59.1207 41.0427 62.2986 40.5755C62.3132 40.9259 62.3279 41.2617 62.3572 41.5975C62.3425 41.5975 62.3132 41.5975 62.2986 41.5975C59.0914 41.8019 55.8989 42.0209 52.7063 42.2399C52.7502 42.1523 52.7795 42.0355 52.8088 41.9479ZM15.5673 40.517C15.582 40.3126 15.5966 40.152 15.6259 39.9476C17.9105 40.3564 20.2243 40.6046 22.5382 40.7069H22.5821C22.5675 40.9405 22.5821 41.1887 22.6261 41.4515C20.2683 41.1887 17.9105 40.8821 15.5673 40.517ZM22.5236 40.371C20.2243 40.2834 17.9251 40.0206 15.6552 39.5972C15.6845 39.2322 15.7138 38.8672 15.7577 38.5167C18.0569 39.0716 20.3708 39.6264 22.6554 40.1812C22.6261 40.2396 22.6261 40.298 22.6114 40.3856C22.6114 40.371 22.5675 40.371 22.5236 40.371ZM52.9699 40.4002C56.016 39.787 59.0621 39.13 62.0936 38.5021C62.1814 39.0862 62.24 39.6702 62.2693 40.2396C62.2547 40.2396 62.24 40.2396 62.24 40.2396C59.1207 40.6923 56.0014 41.1449 52.8967 41.5829C52.926 41.4369 52.9553 41.2763 52.9699 41.1157C55.9721 40.5024 59.0035 39.9768 62.035 39.5388C62.2547 39.5096 62.1521 39.1884 61.9325 39.2176C58.945 39.641 55.9428 40.1666 52.9846 40.7799C52.9846 40.6631 52.9846 40.5316 52.9699 40.4002ZM15.8016 38.1809C15.8309 37.9765 15.8456 37.7721 15.8895 37.5823C18.2473 38.2247 20.5905 38.838 22.9336 39.4804C22.8604 39.6118 22.8018 39.7432 22.7579 39.8746C20.4294 39.3052 18.1155 38.7358 15.8016 38.1809ZM52.8381 39.5826C55.8403 38.7066 58.9303 38.1663 61.9325 37.2903C61.9764 37.5823 62.0203 37.8743 62.0496 38.1809C59.0182 38.8088 55.9867 39.4512 52.9406 40.079C52.926 39.9038 52.882 39.7286 52.8381 39.5826ZM53.7607 38.4875C56.3675 37.5239 59.0182 36.6771 61.7128 35.9616C61.7714 36.2974 61.83 36.6186 61.8885 36.9545C58.9157 37.8305 55.8696 38.3707 52.9113 39.2176C53.1749 38.984 53.3946 38.7212 53.585 38.4437C53.5996 38.4875 53.6582 38.5167 53.7168 38.5167C53.7168 38.5021 53.7461 38.5021 53.7607 38.4875ZM23.5048 38.1955C21.0152 37.5677 18.5695 36.8231 16.1385 35.9762C16.2117 35.5528 16.2996 35.1586 16.3874 34.7352C18.6281 35.9324 20.9712 36.9107 23.4022 37.6553C23.4022 37.6699 23.4169 37.6553 23.4315 37.6699C23.5048 37.9765 23.6073 38.2831 23.7537 38.5751C23.4901 38.765 23.2704 38.9694 23.0947 39.203C23.0801 39.1738 23.0654 39.1592 23.0215 39.1446C20.6344 38.5167 18.2912 37.8743 15.9188 37.2319C15.9627 36.9253 16.0067 36.6186 16.0652 36.2974C18.4816 37.1443 20.9273 37.8889 23.4022 38.5167C23.4169 38.5167 23.4315 38.5167 23.4462 38.5167C23.6366 38.5167 23.6951 38.2393 23.5048 38.1955ZM54.1415 37.2027C56.5579 36.2682 58.9742 35.3192 61.3906 34.3993C61.4785 34.8082 61.581 35.2316 61.6542 35.6404H61.6396C58.9742 36.3558 56.3675 37.1735 53.79 38.1371C53.9365 37.8305 54.0536 37.5239 54.1415 37.2027ZM16.4753 34.3993C16.5339 34.1511 16.5925 33.9175 16.651 33.6693C18.8331 34.779 21.0444 35.8302 23.2851 36.7939H23.3144C23.329 36.9691 23.3437 37.1443 23.373 37.2903C20.9859 36.5456 18.6866 35.582 16.4753 34.3993ZM54.2733 35.9908C56.5725 35.1002 58.8424 34.1365 61.0538 33.0999C61.1417 33.4211 61.2295 33.7423 61.3027 34.0635C58.945 34.9834 56.5872 35.9032 54.2294 36.8231C54.2733 36.531 54.2879 36.2536 54.2733 35.9908ZM16.7389 33.3335C16.8121 33.0269 16.9 32.7203 16.9879 32.4136C19.1113 33.5233 21.2348 34.6329 23.3437 35.7426C23.3144 35.9616 23.2997 36.1952 23.2997 36.4142C21.0737 35.4652 18.877 34.4431 16.7389 33.3335ZM54.1854 35.2462V35.2316C56.3089 34.0635 58.5056 32.9977 60.717 31.9464C60.8048 32.2238 60.8781 32.5012 60.9513 32.7641C58.7399 33.7861 56.5139 34.7352 54.244 35.6258C54.2294 35.509 54.2147 35.3776 54.1854 35.2462ZM17.0904 32.0778C17.1782 31.8004 17.2515 31.523 17.354 31.2602C19.4042 32.5012 21.4984 33.6839 23.6073 34.8374C23.5194 35.0272 23.4755 35.217 23.4169 35.4068C21.3081 34.3117 19.2139 33.1875 17.0904 32.0778ZM55.2398 33.7569C57.0119 32.8809 58.7106 31.9172 60.3655 30.8368C60.468 31.0996 60.5412 31.3478 60.6291 31.6106C58.5642 32.5888 56.5286 33.5817 54.5223 34.6622C54.8151 34.4139 55.0348 34.1073 55.2398 33.7569ZM17.4711 30.9244C17.5883 30.6177 17.7055 30.2965 17.8226 29.9899C19.8436 31.3478 21.8499 32.7203 23.8709 34.0781C23.9295 34.1219 23.988 34.1219 24.032 34.0781C23.9295 34.2241 23.8269 34.3701 23.7684 34.5161C21.6302 33.3773 19.536 32.18 17.4711 30.9244ZM28.3082 29.5227C28.2789 29.7125 28.2496 29.9023 28.235 30.0921C27.6639 30.0921 27.1513 30.3403 26.7705 30.793C26.3312 31.3186 26.2433 31.9756 26.2873 32.6326C26.0969 32.6764 25.9065 32.7349 25.7161 32.7933C25.6722 31.1434 26.4337 29.4935 28.3082 29.5227ZM29.802 26.2229C29.6995 26.5733 29.6262 26.9384 29.6116 27.3326C29.6116 27.3472 29.5823 27.3472 29.5677 27.3618C29.0405 27.7706 28.7036 28.2962 28.484 28.8365C27.9714 28.8073 27.5174 28.8657 27.1074 29.0263C27.5028 27.6976 28.484 26.6609 29.802 26.2229ZM55.3863 28.1064C56.3821 27.4932 57.2901 26.7486 58.0809 25.8871C58.242 26.1645 58.4031 26.4565 58.5642 26.7339C57.5976 27.5224 56.6311 28.2962 55.6645 29.0847C55.6206 28.7197 55.5327 28.3984 55.3863 28.1064ZM51.0222 25.1863C51.1247 25.1863 51.2125 25.2009 51.3151 25.2155C51.3443 25.3031 51.4762 25.3469 51.5494 25.3031C51.8276 25.4345 52.0619 25.6535 52.1937 25.9455C51.8716 25.9455 51.5787 25.9747 51.2858 26.0477C51.2125 25.7265 51.1247 25.4345 51.0222 25.1863ZM54.5369 26.953L57.2462 24.5876C57.4805 24.9235 57.7001 25.2593 57.8905 25.6097C57.8759 25.6097 57.8466 25.6389 57.832 25.6535C57.0558 26.5149 56.1917 27.2158 55.2106 27.7998C55.0348 27.4932 54.8151 27.2158 54.5369 26.953ZM24.9399 29.6541C23.2704 28.2962 21.6888 26.7924 20.2097 25.2009C20.4587 24.8067 20.7369 24.3978 21.0152 24.0328C22.6261 26.0185 24.237 27.9896 25.8479 29.9753C25.2035 30.8076 24.9546 31.9756 25.0571 33.1291C24.7203 33.3335 24.4127 33.6109 24.1491 33.9175C24.1345 33.9467 24.1052 33.9759 24.0905 33.9905C24.1198 33.9321 24.0905 33.8591 24.032 33.8007C21.9964 32.4282 19.9607 31.0412 17.9398 29.6687C18.0569 29.3621 18.1887 29.0409 18.3352 28.7197C20.2829 30.3403 22.2453 31.9318 24.1931 33.5379C24.3688 33.6693 24.6031 33.4357 24.4274 33.2897C22.4503 31.669 20.4587 30.0483 18.4816 28.413C18.6134 28.1356 18.7452 27.8582 18.877 27.5954C20.7516 29.2745 22.6261 30.9536 24.5152 32.6326C24.6763 32.7787 24.9253 32.545 24.7642 32.399C22.8457 30.6761 20.9419 28.9679 19.0235 27.2742C19.1699 27.0114 19.2871 26.7632 19.4335 26.5149C21.1177 28.1502 22.8165 29.8001 24.5152 31.4354C24.6763 31.596 24.9106 31.3624 24.7642 31.2018C23.0361 29.5373 21.3227 27.8728 19.6093 26.2229C19.7411 25.9747 19.8729 25.7557 20.0193 25.5221C20.0486 25.5513 20.0633 25.5805 20.0925 25.6097C20.2097 25.7265 20.3122 25.8287 20.4001 25.9455C20.5758 26.1353 20.7662 26.3105 20.9419 26.4857C21.3373 26.8946 21.7474 27.2888 22.1574 27.683C22.9775 28.4568 23.8416 29.2015 24.691 29.9169C24.7349 29.9461 24.7642 29.9607 24.8081 29.9607C24.9546 29.9461 25.0717 29.7709 24.9399 29.6541ZM32.1744 24.354C32.6723 24.0912 33.2435 23.9598 33.8586 23.9744C33.9025 23.989 33.9464 24.0036 34.005 23.9744C34.1661 23.989 34.3272 24.0182 34.4883 24.0328C34.2833 24.2664 34.1222 24.5146 33.9904 24.8067C32.8188 24.7775 31.779 25.5221 31.369 26.6171C31.0321 26.6609 30.6807 26.7632 30.3731 26.8946C30.4171 26.6025 30.5049 26.2959 30.6221 26.0331C30.7539 26.1061 30.9443 25.9601 30.8564 25.7995C30.8418 25.7703 30.8271 25.7265 30.7978 25.6973C31.0907 25.2009 31.4861 24.7921 31.9694 24.4854C31.984 24.4854 31.9987 24.4854 32.0133 24.4854C32.0719 24.5 32.1451 24.4416 32.1744 24.354ZM34.3858 25.6535C34.7226 24.354 35.777 23.5656 37.0072 23.5802C36.8168 23.7262 36.6264 23.8722 36.4653 24.0474C35.1327 25.4053 34.9862 27.4494 35.6892 29.1139C35.5134 29.3475 35.367 29.5957 35.2645 29.8585C34.3126 30.866 32.7602 30.1943 32.1012 29.2015C31.8669 28.8365 31.2665 29.1723 31.5154 29.5373C32.2623 30.6323 33.8 31.377 35.0155 30.8514C35.0155 30.9974 35.0009 31.1434 35.0155 31.2894C34.8544 31.3916 34.708 31.523 34.5615 31.669C34.5029 31.669 34.459 31.6836 34.3858 31.7128C33.8439 31.9902 33.2435 31.9026 32.687 31.6398C32.687 31.6252 32.6723 31.6252 32.6723 31.6252C32.0426 31.3186 31.4715 30.8222 31.1054 30.3549C30.8125 30.0191 30.3438 30.5009 30.6221 30.8368C31.0175 31.3186 31.574 31.8004 32.1891 32.1362C32.1451 32.5012 32.1305 32.8663 32.1305 33.2313C31.4275 32.7787 30.6807 32.6034 29.8606 33.1437C29.0551 33.6839 28.7183 34.5891 28.8208 35.509C28.6451 35.6112 28.484 35.728 28.3522 35.8594C28.03 36.166 28.5132 36.6479 28.8208 36.3412C28.9526 36.2098 29.099 36.1222 29.2601 36.0492C29.3041 36.0346 29.348 36.0054 29.4066 35.9908C30.3145 35.6258 31.5301 35.9178 32.028 36.7793C32.233 37.1589 32.8334 36.8085 32.6138 36.4288C31.9987 35.3776 30.6367 34.9834 29.5091 35.2608C29.4798 34.6621 29.7141 34.0927 30.2413 33.7277C30.9736 33.2167 31.5886 33.5817 32.1744 34.0781C32.1744 34.0927 32.1891 34.0927 32.2037 34.1073C32.3648 35.4798 32.892 36.7355 33.9757 37.5093C33.6243 38.6044 33.4339 39.7286 33.7414 40.8529C33.8586 41.2763 34.5176 41.1011 34.4004 40.6777C34.1368 39.714 34.2979 38.7796 34.5762 37.8597C34.8544 37.9765 35.1473 38.0787 35.4695 38.1517C34.913 40.0498 35.1034 41.9917 35.982 43.773C36.1724 44.1672 36.7582 43.8168 36.5532 43.4372C35.7184 41.7143 35.6013 39.86 36.2017 38.0495C36.2164 37.9765 36.2164 37.9035 36.2017 37.8451C36.2164 37.6991 36.1431 37.5823 35.9528 37.5531C33.3021 37.1735 32.6138 34.6622 32.8627 32.3844C33.1996 32.4866 33.551 32.5304 33.9025 32.5158C33.4924 33.2459 33.3606 34.0927 33.6242 34.9688C34.0489 36.312 35.3377 37.0713 36.6704 36.8961C36.8754 37.4217 37.2415 37.8597 37.7101 38.1517C38.0909 38.3853 38.4131 37.8013 38.047 37.5677C37.6223 37.3049 37.344 36.9107 37.2122 36.4434C37.1683 36.239 36.9925 36.1806 36.8461 36.2098C36.8168 36.2098 36.7729 36.2098 36.7436 36.2098C35.5574 36.4434 34.4444 35.7134 34.1954 34.5161C33.9757 33.3919 34.5762 32.3698 35.4841 31.7566C35.6013 31.7128 35.7184 31.6252 35.6892 31.45C35.5281 29.8439 36.6996 28.5152 38.3398 28.5444C38.7792 28.559 38.7792 27.8874 38.3398 27.8728C38.1202 27.8728 37.9151 27.8874 37.7248 27.9312C37.6223 27.026 37.6662 26.1207 38.4716 25.5367C39.4089 24.8359 40.6391 25.1425 41.2688 26.1207C41.3127 26.1645 41.3567 26.1937 41.3859 26.2375C41.3567 26.3835 41.3127 26.5441 41.2834 26.7048C40.9466 26.3251 40.5073 26.0623 39.8775 26.1353C38.8671 26.2521 38.3398 27.2888 38.8378 28.1502C39.0574 28.5298 39.6432 28.194 39.4236 27.8144C38.9403 26.9968 40.0093 26.6025 40.6098 26.9676C41.1077 27.2888 41.2395 27.8728 41.4738 28.3692C41.6203 28.6758 41.9571 28.559 42.0742 28.3108C42.1182 28.2524 42.1475 28.1502 42.1035 28.0334C41.8839 27.5078 41.8839 26.5879 42.2207 26.1207C42.5429 25.6681 43.1726 25.5805 43.6852 25.6681C44.1245 25.7411 44.3002 25.0841 43.8755 25.0111C43.1287 24.8797 42.2939 25.0111 41.7667 25.6243C41.5031 25.2593 41.1663 24.9819 40.7855 24.7921C42.1475 23.2882 44.4174 23.3466 45.589 25.0841C45.8233 25.4491 46.4091 25.1133 46.1748 24.7483C46.1455 24.719 46.1308 24.6752 46.0869 24.646C47.4196 23.551 49.1184 23.7262 50.0263 24.8359C50.0263 24.8505 50.0117 24.8505 49.997 24.8651C49.9092 25.0111 50.0995 25.1571 50.2167 25.0987C50.4217 25.4345 50.5682 25.8141 50.6414 26.2667C50.6121 26.2813 50.5828 26.2959 50.5535 26.3105C50.1728 26.5149 50.5096 27.099 50.8904 26.8946C51.3883 26.6463 51.9301 26.5733 52.4573 26.6463C52.5452 26.7193 52.6624 26.7485 52.7649 26.7193C54.1561 27.0698 55.3277 28.413 54.903 29.9023C54.7712 30.3257 55.4302 30.5155 55.562 30.0775C55.606 29.8877 55.6499 29.6833 55.6645 29.5081C56.675 28.6904 57.7148 27.8582 58.7399 27.0406C58.901 27.3326 59.0475 27.6246 59.1793 27.9312C59.1646 27.9312 59.15 27.9312 59.1353 27.9458C57.9052 28.8219 56.675 29.7125 55.4595 30.5885C55.2838 30.72 55.4449 31.012 55.6206 30.8806C56.8508 30.0045 58.0663 29.1285 59.2964 28.2378C59.2964 28.2232 59.2964 28.2232 59.3111 28.2232C59.4429 28.486 59.56 28.7489 59.6625 29.0117C59.6625 29.0263 59.6479 29.0263 59.6333 29.0263C58.3592 29.8439 57.0558 30.6761 55.7524 31.5084C55.5767 31.6252 55.7524 31.9172 55.9281 31.8004C57.2169 30.9828 58.5056 30.1505 59.7943 29.3183C59.9408 29.7125 60.1019 30.1067 60.2483 30.5009C58.7106 31.5084 57.1144 32.4282 55.4742 33.2313C55.5767 32.9977 55.6645 32.7641 55.7085 32.5158C55.8256 32.107 55.1666 31.9172 55.0641 32.3406C54.8298 33.3481 54.2733 34.3409 53.2189 34.6475C52.2816 34.9396 51.2858 34.5015 50.7586 33.7131C50.905 33.6255 51.0515 33.5525 51.1979 33.4503C51.9887 33.8737 53.7168 34.1073 53.9804 32.9539C54.0683 32.5304 53.4093 32.3406 53.3214 32.7787C53.2335 33.0999 52.6624 33.1291 52.4134 33.1145C52.1645 33.1145 51.9301 33.0561 51.7251 32.9539C52.4866 32.0778 52.7063 30.8222 52.4281 29.6249C52.3402 29.2015 51.6812 29.3767 51.7837 29.8147C52.0766 31.0996 51.6665 32.5012 50.4071 33.1145C49.3966 33.5963 48.225 33.2897 47.6685 32.3406C48.0054 31.304 47.8736 30.0921 46.8338 29.6103C47.0827 29.5227 47.3317 29.4205 47.566 29.2891C47.6832 30.1943 48.4593 30.9244 49.4698 30.866C49.8945 30.8368 49.9092 30.1651 49.4698 30.1797C48.7083 30.2235 48.0932 29.6103 48.2543 28.8365V28.7927C48.4008 28.6612 48.5179 28.5152 48.6204 28.3692C48.8694 28.0188 48.2836 27.6684 48.0346 28.0188C47.6978 28.5298 46.9656 28.9533 46.2187 29.0701C46.1894 29.0701 46.1601 29.0847 46.1455 29.0847C45.3986 29.2015 44.6517 29.0117 44.2856 28.34C44.0952 27.9458 43.5094 28.2816 43.7145 28.6758C44.1245 29.4643 44.9007 29.8001 45.7208 29.8001C45.4132 30.3987 44.9446 30.8806 44.2563 31.0412C43.2898 31.2602 42.25 30.5739 42.4257 29.5081C42.4989 29.0847 41.8399 28.9095 41.7667 29.3329C41.547 30.5447 42.3818 31.6544 43.6266 31.7712C44.3149 31.8296 44.9153 31.6106 45.384 31.231C45.6476 31.4646 45.7354 31.8734 45.5597 32.1946C45.34 32.5742 45.9258 32.9247 46.1455 32.545C46.4823 31.9464 46.3505 31.2018 45.8672 30.7638C46.0576 30.5447 46.2041 30.3111 46.3359 30.0483C46.3651 30.1067 46.4237 30.1797 46.5262 30.1943C47.2878 30.4863 47.3024 31.4354 47.0095 32.1946C46.9949 32.2238 46.9802 32.2676 46.9656 32.2822C46.8191 32.6326 46.6141 32.9247 46.4091 33.1145C45.7647 33.6401 44.9446 33.4211 44.5199 32.7933C44.7689 32.5012 44.3295 32.0632 44.022 32.3552C43.4216 32.8809 42.5136 32.8225 41.8692 32.399C41.137 31.9318 40.8734 31.0996 40.9613 30.2673C41.0198 29.8439 40.3462 29.8439 40.2876 30.2673C40.1411 31.4062 40.6684 32.545 41.7081 33.0853C42.4257 33.4649 43.2605 33.5233 43.9634 33.1875C44.6517 34.2533 46.2187 34.3993 47.0827 33.3919C47.1853 33.3043 47.2585 33.1729 47.3317 33.0561C47.9907 33.8591 49.0744 34.1949 50.0995 33.9613C50.3778 34.4577 50.8171 34.852 51.3297 35.1294C51.3297 35.144 51.3297 35.144 51.3297 35.144C50.9636 36.0492 51.5347 37.1297 52.4573 37.3925C52.882 37.5093 53.0578 36.8669 52.6477 36.7355C52.0473 36.5602 51.7837 35.9178 51.9741 35.363C52.3402 35.4506 52.721 35.4798 53.0871 35.4068C53.2482 35.3776 53.3946 35.3338 53.5411 35.29C53.5264 35.3338 53.5264 35.3922 53.5411 35.4652C53.8193 36.7939 53.2921 38.1517 52.2084 38.9402C52.1645 38.9548 52.1352 38.9694 52.1059 38.9986C52.0912 39.0132 52.0912 39.0132 52.0619 39.0278C51.7837 39.203 51.9155 39.5972 52.1645 39.6556C52.5306 40.9843 52.223 42.3859 51.2418 43.408C50.9636 43.7 51.3297 44.0942 51.6226 43.9628C51.6519 43.992 51.6812 44.0066 51.7251 44.0066C55.152 44.0066 58.5935 44.1964 62.0057 44.5468C62.2254 44.5615 62.2254 44.2402 62.0057 44.211C58.6521 43.8606 55.2838 43.6708 51.9155 43.6708C52.0619 43.4956 52.1937 43.3204 52.2963 43.1306C55.5913 43.262 58.8717 43.3788 62.1521 43.5102C62.3718 43.5102 62.3718 43.1744 62.1521 43.1598C58.9303 43.043 55.7085 42.9262 52.4866 42.7948C52.5159 42.7364 52.5452 42.678 52.5745 42.6196L62.3132 41.9625C62.3279 41.9625 62.3572 41.9625 62.3718 41.9333C62.4011 42.5173 62.4157 43.0868 62.4157 43.6562C62.4157 44.8097 62.3718 45.9777 62.2693 47.1166C58.6374 46.3427 54.9762 45.6565 51.3004 45.0871C51.2565 45.0725 51.1833 45.0871 51.1686 45.1163C50.7878 43.773 50.4071 42.1231 51.7983 41.8165C52.223 41.7289 52.0473 41.0573 51.6226 41.1595C50.4071 41.4223 50.0117 42.6342 50.1728 43.7584C50.2899 44.5906 50.6268 45.3791 50.7732 46.2113C50.9929 47.4378 50.9489 48.6789 50.7439 49.9199C50.2606 50.2995 49.6309 50.4455 49.0305 50.3433C48.6058 50.2557 48.4154 50.9128 48.8401 50.9858C48.8547 50.9858 48.8694 50.9858 48.884 51.0004C48.8255 51.0734 48.8108 51.1902 48.9133 51.2632C52.4134 53.8037 55.9135 56.315 59.3989 58.8556C59.2525 59.1768 59.106 59.4834 58.945 59.8046C58.9303 59.7754 58.9303 59.7754 58.901 59.7462C56.9972 58.6512 55.4742 56.9429 53.8047 55.5558C52.267 54.2709 50.6853 53.0299 49.0451 51.8618C48.9426 51.6282 48.5765 51.526 48.43 51.7888C48.3715 51.8764 47.8589 51.526 47.7417 51.4822C47.4342 51.3654 47.112 51.3654 46.7752 51.4238C46.0576 51.5406 45.3547 51.8618 44.7396 52.256C44.5931 52.3436 44.5785 52.4896 44.5931 52.6065C44.5199 52.6795 44.476 52.7963 44.5346 52.9277C44.9593 54.2417 46.3798 55.001 47.6978 54.6506C47.7271 54.636 47.7418 54.636 47.7564 54.6214C47.7418 54.6652 47.7271 54.7236 47.771 54.7674C50.2899 58.1547 52.9553 61.4545 55.7231 64.6521C55.4156 65.0025 55.108 65.3383 54.7859 65.6595C52.2963 62.2721 49.8799 58.8264 47.5074 55.3514C47.3903 55.1762 47.0827 55.3514 47.2145 55.5266C49.6016 59.0162 52.0473 62.4912 54.5515 65.9077C54.2879 66.1559 54.0097 66.4188 53.7314 66.6524C51.7398 63.0898 49.543 59.6586 47.1413 56.3588C47.112 56.3296 47.0681 56.2858 47.0242 56.2858C47.0095 56.023 47.0095 55.7602 46.9509 55.512C46.8631 55.0886 46.2187 55.2638 46.2919 55.7018C46.5116 56.7093 46.2187 57.7897 45.4279 58.5052C44.4613 59.352 43.4509 59.0308 42.5136 58.3737C40.9613 57.3079 39.4089 56.1836 37.8566 55.0886C35.2352 53.2343 32.438 51.161 31.6179 47.905C31.5008 47.4816 30.8564 47.6714 30.9589 48.0802C32.0573 52.3728 36.2749 54.8112 39.6579 57.1911C41.0638 58.1839 43.0115 60.301 44.9153 59.6002C45.0325 60.1404 45.1789 60.6807 45.2814 61.2355C45.2961 61.5421 45.3986 62.3889 45.2814 62.5642C45.0618 62.9 44.4028 62.9 43.9341 62.9C43.817 62.9 43.7145 62.9 43.6412 62.9C42.8797 62.9584 42.1035 63.0168 41.3713 63.2212C40.5366 63.4548 39.8922 63.8928 39.2039 64.3746C38.7645 64.6959 38.3106 65.0609 37.7394 65.0755C37.2561 65.0901 36.7875 64.8273 36.3042 64.7251C34.5469 64.3308 33.8586 66.2289 32.2769 66.6378C30.4317 67.105 30.5635 65.0609 30.4171 63.8344C30.2706 62.6664 30.1095 61.4837 29.9631 60.3156C29.9191 59.8922 29.2308 59.8922 29.2748 60.3156C29.3626 60.9435 29.4359 61.5713 29.5091 62.1699C29.0844 62.2283 28.7183 62.1407 28.3082 62.0093C27.8396 60.2718 27.9421 58.2861 28.0153 56.5341C28.0886 54.636 28.2789 52.7525 28.5865 50.8836C29.0551 50.9712 29.5237 50.9712 29.9631 50.8398C30.3731 50.6938 30.1827 50.0513 29.7727 50.1827C29.0697 50.4017 28.2789 50.1535 27.6785 49.7593C26.9756 49.2775 26.9023 48.2408 27.0195 47.4962V47.394C27.0195 47.2334 26.9023 47.0728 26.6827 47.0728C25.4818 47.0582 24.5152 45.7003 24.5592 44.5468C24.5738 43.5832 25.5257 42.0501 26.7119 42.5173C27.1074 42.678 27.2831 42.0355 26.8877 41.8603C26.2873 41.6121 25.7308 41.7435 25.2475 42.0647C24.9253 41.7581 24.7056 41.2471 24.7056 40.8091C24.691 40.2104 25.1889 39.8016 25.7308 39.8016C25.7308 40.2834 25.804 40.7653 26.009 41.2471C26.1701 41.6413 26.8291 41.4807 26.6534 41.0719C26.4483 40.5754 26.3751 40.1228 26.4044 39.6556C26.4337 39.568 26.4483 39.4804 26.4337 39.3782C26.463 39.1592 26.5069 38.9402 26.5655 38.7212C26.6827 38.2831 26.0236 38.1079 25.9065 38.5313C25.8479 38.7358 25.8186 38.9256 25.7893 39.13C25.0571 39.1154 24.3834 39.495 24.1198 40.225C23.8562 40.9551 24.1491 41.9625 24.7203 42.5027C24.6031 42.6342 24.486 42.7802 24.3834 42.9408C22.5968 41.6851 22.9483 39.0716 25.2621 38.692C25.7015 38.6189 25.5111 37.9765 25.0864 38.0349C24.8228 38.0787 24.6031 38.1517 24.3834 38.2393C23.8562 37.0421 23.7977 35.5966 24.5885 34.4869C25.4086 33.3189 26.9463 32.9393 28.235 33.4795C28.6304 33.6547 28.8061 32.9831 28.4254 32.8225C27.9714 32.6326 27.4881 32.545 27.0048 32.545C26.9609 31.742 27.3417 30.6907 28.2789 30.7346C28.3082 31.3478 28.44 31.9756 28.6304 32.545C28.7622 32.9685 29.4212 32.7787 29.2894 32.3698C28.8208 30.8514 28.6597 28.9825 30.0509 27.8874C31.3983 26.8216 33.1263 27.1282 34.4004 28.1064C34.7519 28.3692 35.1034 27.7852 34.7519 27.5224C33.9904 26.953 33.0824 26.5879 32.1744 26.5441C32.482 25.9455 33.097 25.5659 33.7853 25.4783C33.7414 25.7119 33.9464 25.8725 34.1368 25.8725C34.21 25.8871 34.3565 25.8141 34.3858 25.6535ZM36.9486 24.5438C37.9591 23.4926 39.5407 23.2444 40.8441 23.7992C40.6098 23.989 40.3755 24.208 40.1704 24.4562C40.1411 24.5 40.1265 24.5146 40.1265 24.5438C39.6139 24.4416 39.0721 24.4708 38.5449 24.719C37.139 25.3761 36.934 26.7486 37.0804 28.121C36.7729 28.2524 36.48 28.413 36.2164 28.6174C35.7184 27.2596 35.8942 25.6243 36.9486 24.5438ZM54.1854 26.6171C53.995 26.4565 53.7607 26.3251 53.5264 26.2229C54.449 25.2447 55.357 24.2664 56.2796 23.2736C56.5432 23.6094 56.8068 23.9598 57.0558 24.3102C56.1332 25.1133 55.2106 25.9163 54.3026 26.7193C54.2586 26.6755 54.2147 26.6463 54.1854 26.6171ZM21.2202 23.7408C21.4106 23.4926 21.6009 23.2444 21.806 22.9962C23.4169 24.8943 24.9399 26.8654 26.3458 28.9241C26.3751 28.9533 26.4044 28.9679 26.4337 28.9825C26.4191 29.0847 26.3898 29.2015 26.3751 29.3183V29.4351C26.2726 29.5081 26.1847 29.6103 26.0969 29.7125C24.4567 27.7268 22.8457 25.7411 21.2202 23.7408ZM52.926 26.0039C52.882 25.8287 52.8235 25.6681 52.7356 25.5221C53.6582 24.4708 54.5662 23.405 55.4888 22.3537C55.6938 22.5727 55.8842 22.7918 56.0746 23.0108C55.108 24.0328 54.1415 25.0549 53.1896 26.0623C53.1017 26.0477 53.0138 26.0185 52.926 26.0039ZM22.0256 22.7479C22.1574 22.5873 22.3039 22.4267 22.4357 22.2807C24.0905 24.0474 25.5404 25.9893 26.7559 28.0626C26.6827 28.2524 26.5948 28.4276 26.5362 28.6174C25.145 26.5733 23.6366 24.6168 22.0256 22.7479ZM37.4319 22.9378C38.1641 22.2077 39.1453 21.9449 40.0533 22.2077V22.2223C40.0093 22.4267 40.2729 22.5143 40.3608 22.3245C40.6244 22.4413 40.8734 22.6019 41.1077 22.8064C41.1809 23.0108 41.4592 23.1422 41.6788 22.9524C42.2793 22.3975 43.6559 22.0325 44.4467 22.2807C44.476 22.2953 44.5053 22.3099 44.5199 22.3245C44.5492 22.4121 44.6664 22.4705 44.7542 22.4267C45.0618 22.6019 45.3693 22.8794 45.6476 23.1568C45.6329 23.186 45.6329 23.2152 45.6329 23.2298C45.5743 23.405 45.7647 23.478 45.8819 23.405C45.9844 23.5218 46.0723 23.6386 46.1894 23.7408C45.999 23.8576 45.8086 23.9744 45.6476 24.1058C44.5199 22.9962 42.8944 22.7187 41.5177 23.3758C40.4487 22.7626 39.1746 22.6603 38.0323 23.04C37.8419 23.0108 37.6369 22.967 37.4319 22.9378ZM51.9301 24.7337C52.7063 23.5364 53.5557 22.3829 54.4637 21.2879C54.7273 21.5361 54.9909 21.8281 55.2545 22.0909C54.3319 23.1422 53.4385 24.1788 52.5306 25.2301C52.3841 25.0111 52.1645 24.8505 51.9301 24.7337ZM50.6268 24.5146C51.5347 23.113 52.472 21.7405 53.4532 20.3826V20.368C53.7021 20.587 53.9657 20.806 54.2001 21.0397C53.2628 22.1639 52.3988 23.3466 51.608 24.573C51.3004 24.4854 50.9782 24.4562 50.6268 24.5292C50.6414 24.5292 50.6414 24.5292 50.6268 24.5146ZM49.5577 23.5948C49.5723 23.5802 49.587 23.5656 49.6016 23.551C49.6016 23.5364 49.6163 23.5218 49.6163 23.4926C50.5682 22.1931 51.4762 20.8499 52.3109 19.4628C52.6184 19.6964 52.926 19.93 53.2189 20.1636C53.2042 20.1782 53.1896 20.1928 53.1749 20.2074C52.223 21.5215 51.3004 22.8648 50.4071 24.2372C50.1581 23.9744 49.8799 23.7554 49.5577 23.5948ZM48.2982 23.2444C48.6351 22.3975 49.2209 21.6967 49.7041 20.9375C50.1874 20.1782 50.5828 19.3752 50.9197 18.5575C51.3004 18.7765 51.6519 19.0102 52.0034 19.2584C51.1393 20.7038 50.2021 22.0909 49.2062 23.4342C48.9426 23.332 48.6204 23.2736 48.2982 23.2444ZM47.1413 23.3174C47.3903 23.04 47.6539 22.0909 47.7125 21.9595C47.9175 21.5069 48.1518 21.0835 48.3715 20.6454C48.8547 19.7548 49.3087 18.835 49.7774 17.9443C50.0703 18.0903 50.3485 18.2509 50.6414 18.4115C50.2167 19.419 49.6895 20.3826 49.0744 21.2879C48.6351 21.9303 48.1957 22.5289 47.9321 23.2444C47.6832 23.259 47.4342 23.2882 47.1853 23.3612C47.1706 23.332 47.1706 23.332 47.1413 23.3174ZM22.67 22.0179C24.237 20.3388 26.0969 18.9226 28.2643 17.8421C29.0112 20.1198 29.8606 22.3391 30.8271 24.5292C30.6807 24.6898 30.5342 24.8505 30.4024 25.0111C29.3187 23.0108 28.4107 20.9229 27.6931 18.7327C27.6199 18.5283 27.2831 18.6159 27.3563 18.8204C28.0886 21.0835 29.0405 23.2444 30.1974 25.3323C30.1681 25.3615 30.1681 25.4053 30.1242 25.4345C29.9777 25.4637 29.8313 25.4929 29.6702 25.5513C29.6702 25.5221 29.6702 25.4929 29.6409 25.4637C28.3668 23.551 27.2538 21.5361 26.3165 19.4336C26.2287 19.2438 25.9358 19.4044 26.0236 19.6088C26.9609 21.7113 28.0593 23.7262 29.3626 25.6389C29.3773 25.6389 29.3773 25.6389 29.3773 25.6389C29.1723 25.7119 28.9819 25.8141 28.7915 25.9163C27.4295 24.062 26.258 22.1201 25.2328 20.076C25.1303 19.8716 24.8374 20.0468 24.9399 20.2366C25.9651 22.2807 27.1366 24.2372 28.484 26.0769C28.484 26.0915 28.4986 26.0915 28.4986 26.0915C28.235 26.2813 27.9714 26.4857 27.7371 26.7048C27.7371 26.6901 27.7371 26.6755 27.7224 26.6609C26.5069 24.8505 25.2914 23.04 24.0905 21.2587C23.9587 21.0689 23.6658 21.2441 23.783 21.4193C24.9985 23.2152 26.1994 25.0403 27.4295 26.8362C27.4588 26.88 27.5028 26.9092 27.5467 26.9092C27.327 27.1574 27.1366 27.4202 26.9609 27.7122C25.7161 25.6681 24.3102 23.7554 22.67 22.0179ZM46.1748 22.7479C46.5262 21.8719 47.0242 21.0689 47.4196 20.2366C47.8589 19.3168 48.2104 18.3677 48.5326 17.4187V17.3603C48.8547 17.4917 49.1769 17.6523 49.4845 17.7983C48.884 18.9518 48.269 20.1052 47.6978 21.2733C47.4781 21.6821 46.7752 22.7918 46.7752 23.4196C46.5848 23.2006 46.3944 22.967 46.1748 22.7479ZM28.5718 17.6961C28.5718 17.6961 28.5572 17.6961 28.5718 17.6961C28.9087 17.5209 29.2748 17.3603 29.6262 17.1997C30.2267 19.4482 30.9003 21.6529 31.6619 23.8576C31.4568 23.9744 31.2665 24.1058 31.0761 24.281C30.1242 22.1347 29.3041 19.93 28.5718 17.6961ZM45.0911 21.8573C45.8819 20.222 46.6141 18.5429 47.2585 16.8347C47.6099 16.9661 47.9321 17.0829 48.2543 17.2289C48.2397 17.2435 48.2104 17.2581 48.1811 17.3165C47.815 18.4407 47.3756 19.5504 46.8484 20.6016C46.5409 21.2441 46.1894 21.8427 45.9112 22.4851C45.6622 22.2369 45.3986 22.0179 45.0911 21.8573ZM29.9484 17.0829C30.2999 16.9369 30.666 16.8054 31.0321 16.6886C31.0321 16.7032 31.0321 16.7178 31.0468 16.7324C31.7644 18.9226 32.4087 21.1419 33.0092 23.3612C32.6431 23.4342 32.2916 23.5364 31.9694 23.697C31.2079 21.5215 30.5196 19.3314 29.9484 17.0829ZM31.3543 16.6448C31.3543 16.6302 31.3543 16.6156 31.3397 16.601C31.6911 16.4842 32.0573 16.382 32.4234 16.2798C32.892 18.6013 33.2874 20.9521 33.6975 23.2882C33.5803 23.2882 33.4632 23.2882 33.3606 23.3028C32.7456 21.0689 32.0866 18.8496 31.3543 16.6448ZM44.3002 16.017C45.2229 16.2068 46.1162 16.4404 46.9509 16.7324C46.2919 18.4261 45.589 20.076 44.7982 21.7113C44.6078 21.6383 44.4028 21.5945 44.1977 21.5653H44.1099C44.3588 20.9959 44.476 20.2512 44.6517 19.7256C44.9885 18.6743 45.34 17.6377 45.6915 16.601C45.7501 16.382 45.4279 16.2944 45.3547 16.5134C45.0618 17.3895 44.7689 18.2801 44.476 19.1854C44.3295 19.5942 44.1977 20.0176 44.0806 20.4264C44.0074 20.6454 43.9341 20.8499 43.8609 21.0543C43.8316 21.1565 43.8023 21.2587 43.7584 21.3609C43.7291 21.4193 43.6998 21.4923 43.6998 21.5653C43.4948 21.5653 43.2898 21.5945 43.0847 21.6237C43.5387 19.7548 43.9341 17.9005 44.3002 16.017ZM34.0343 23.3028C33.6243 20.9375 33.2142 18.5721 32.7456 16.2068C33.1263 16.1192 33.5071 16.0316 33.9025 15.9586C34.21 18.4407 34.5176 20.9375 34.8251 23.4196C34.5615 23.3612 34.2979 23.3174 34.0343 23.3028ZM42.9383 15.7834C43.2751 15.8272 43.6119 15.8856 43.9488 15.944C43.5827 17.8713 43.1726 19.784 42.7333 21.6821C42.3379 21.7989 41.9132 21.9595 41.5763 22.1931C42.0303 20.0614 42.4843 17.9297 42.9383 15.7834ZM34.2247 15.9002C34.5469 15.8418 34.8691 15.7834 35.1912 15.7396C35.6745 18.1779 35.4841 20.6746 35.7917 23.1276C35.572 23.2006 35.367 23.3174 35.1619 23.4342C34.8544 20.9375 34.5469 18.4115 34.2247 15.9002ZM40.4926 21.6529C40.8002 19.638 41.1223 17.6231 41.5031 15.6082C41.8839 15.652 42.2353 15.6958 42.5868 15.7396C42.1475 17.8421 41.7081 19.9446 41.2541 22.0617C41.0198 21.9011 40.7562 21.7551 40.4926 21.6529ZM36.1138 22.8794C35.8356 20.4848 35.982 18.0757 35.5427 15.7104C35.9381 15.652 36.3628 15.6082 36.7875 15.579C36.9047 17.8275 37.0072 20.0614 37.1243 22.2953C36.9779 22.4267 36.8461 22.5727 36.7143 22.7333C36.6703 22.7917 36.6411 22.8648 36.6264 22.9232C36.4653 22.9524 36.3189 22.967 36.1578 23.0108C36.1724 22.9524 36.1431 22.9086 36.1138 22.8794ZM39.2918 21.3463C39.5407 19.4044 39.7311 17.4771 39.8775 15.5206C40.3022 15.5206 40.7416 15.5644 41.1663 15.579C40.8002 17.5647 40.4633 19.5504 40.1558 21.5507C39.8483 21.4777 39.5407 21.4339 39.2332 21.4485C39.2771 21.4193 39.2771 21.3901 39.2918 21.3463ZM37.1243 15.5644C37.5197 15.5352 37.9151 15.5206 38.3252 15.5206C38.3106 17.5501 38.2813 19.5796 38.2813 21.6237C37.9884 21.7259 37.7101 21.8573 37.4612 22.0471C37.3294 19.8716 37.2268 17.7107 37.1243 15.5644ZM38.9549 14.9658V15.506C39.16 15.506 39.3357 15.506 39.5407 15.5206C39.3943 17.4625 39.2039 19.4044 38.9403 21.3463C38.9403 21.4047 38.9549 21.4339 38.9842 21.4631C38.8524 21.4777 38.7206 21.4923 38.6035 21.5215C38.6181 19.5212 38.6327 17.5063 38.6474 15.506C38.7353 15.506 38.8231 15.506 38.8963 15.506V14.9658H38.6035C31.9548 15.0242 26.3458 17.3603 22.26 21.7259C22.2014 21.7405 22.1721 21.7843 22.1428 21.8427C21.6742 22.3391 21.2495 22.8502 20.8394 23.3904C20.8248 23.4196 20.7955 23.4342 20.7955 23.4634C20.7516 23.478 20.7516 23.5072 20.7223 23.551C18.1741 26.9238 16.4607 31.1142 15.582 35.9324C15.5673 35.9616 15.5527 35.9908 15.5527 36.0346C15.1426 38.4291 14.9083 40.9697 14.8937 43.6416C14.9083 51.8034 16.9586 58.8118 20.8394 63.8782C23.7537 67.6598 27.6053 70.2295 32.1891 71.456C32.2037 71.602 32.3941 71.6458 32.482 71.529C34.4004 72.0254 36.436 72.2737 38.5888 72.3028H39.2185C45.5011 72.2444 50.8464 70.1565 54.8737 66.2581C54.9323 66.2289 54.9762 66.1851 54.9909 66.1413C55.357 65.7617 55.7378 65.3675 56.0892 64.9587C56.1039 64.9441 56.1185 64.9295 56.1478 64.9149C56.4261 64.5937 56.6897 64.2578 56.9533 63.922C57.0118 63.9074 57.0704 63.8344 57.0704 63.7614C60.9073 58.695 62.9283 51.7304 62.943 43.627C62.9283 35.4506 60.8781 28.4568 56.9972 23.3904C52.8235 17.9443 46.6873 15.0388 39.2332 14.9658H38.9549ZM50.9636 13.5057C50.8171 13.4473 50.7146 13.3889 50.6707 13.3451C50.656 13.3305 50.6268 13.2867 50.5682 13.1991C50.3485 12.8632 50.2167 12.5128 50.2021 12.177C50.1874 11.7974 50.2753 11.3886 50.4803 10.9506C50.5535 10.8191 50.6707 10.6731 50.8171 10.5563C50.9782 10.4249 51.1393 10.3373 51.2858 10.3081C51.5787 10.2351 51.9155 10.2935 52.3109 10.4833C52.3255 10.4833 52.3548 10.5125 52.4134 10.6001C52.677 10.8775 52.8235 11.1842 52.882 11.5346C52.9406 11.9288 52.8528 12.3522 52.6477 12.8194C52.6184 12.8925 52.5306 12.9947 52.3988 13.1553C52.0912 13.4911 51.769 13.6663 51.4322 13.6663C51.2858 13.6225 51.1247 13.5787 50.9636 13.5057ZM51.154 9.8263C50.8318 9.9139 50.4803 10.1183 50.0849 10.4249L49.5138 11.4032C49.5138 11.4178 49.4991 11.4762 49.4845 11.593C49.4259 12.104 49.5138 12.5566 49.7188 12.9363C49.9531 13.3743 50.3632 13.7247 50.9489 13.9875C51.0222 14.0167 51.1833 14.0313 51.4762 14.0167C51.9301 14.0021 52.3402 13.8561 52.6477 13.5787C52.926 13.3597 53.1749 13.0239 53.4093 12.5712C53.4239 12.5566 53.4385 12.5274 53.4532 12.4982C53.4678 12.469 53.4825 12.4544 53.4825 12.4398C53.585 12.2354 53.6143 11.9726 53.5557 11.6368C53.5264 11.3302 53.4825 11.0674 53.3653 10.8483C53.2774 10.6731 53.1603 10.5125 52.9406 10.3227C52.7502 10.1621 52.5745 10.0307 52.3988 9.9431C52.3695 9.9285 52.2523 9.8847 52.0473 9.8263C51.8862 9.76789 51.7251 9.73869 51.564 9.73869C51.4176 9.76789 51.2858 9.78249 51.154 9.8263ZM25.7308 9.9869C25.6575 10.0307 25.4964 10.0599 25.2475 10.1037C25.0132 10.1475 24.8667 10.1767 24.7935 10.2059C24.3542 10.4249 24.0905 10.6585 23.988 10.9214L23.6805 11.7244C23.534 12.0748 23.6805 12.6588 24.0905 13.4619L24.5445 13.9145L25.35 14.2357L26.4191 14.1919C26.5362 14.0897 26.6534 14.0167 26.7559 13.9583C26.8584 13.8999 26.9756 13.8707 27.0927 13.8561C27.1806 13.7539 27.2684 13.6517 27.3563 13.5641C27.4735 13.4473 27.576 13.3597 27.6346 13.3305C27.6639 13.3159 27.7078 13.3013 27.7517 13.2721C27.7957 13.2575 27.8103 13.2429 27.8396 13.2283C27.9421 13.1699 27.9714 13.0823 27.8982 12.9509C27.8542 12.8486 27.7517 12.7464 27.6492 12.6442L27.2392 11.8558L27.4002 11.5346C27.3417 11.4324 27.327 11.374 27.2977 11.3448C27.2538 11.3156 27.1952 11.3156 27.1074 11.3448C27.0195 11.4032 26.9316 11.4616 26.8291 11.593L25.8479 11.958L25.7893 12.1624L26.0383 12.3522L26.6094 12.1186L27.1366 13.0531C27.0781 13.2575 26.8584 13.4473 26.463 13.6371C26.463 13.6371 26.3898 13.6517 26.2433 13.6663C25.7747 13.7247 25.4232 13.6955 25.1889 13.5495C24.896 13.3743 24.6324 13.0385 24.3834 12.5566L24.2077 11.7828L24.3834 11.1842C24.5592 10.9798 24.6617 10.8629 24.6617 10.8629C24.7496 10.7753 24.8521 10.7023 24.9985 10.6293C25.5111 10.3665 25.9358 10.4395 26.258 10.8337L26.5509 10.7753V10.4103C26.463 10.4249 26.3605 10.3227 26.2433 10.1037C26.2287 10.0745 26.214 10.0307 26.1701 9.9723C26.1408 9.9139 26.1115 9.8555 26.0969 9.8263L25.8626 9.73869C25.8626 9.8701 25.804 9.9431 25.7308 9.9869ZM28.235 9.14006L27.5321 9.21307C27.4149 9.22767 27.3856 9.35907 27.4295 9.60728C27.5321 9.68029 27.6492 9.68029 27.7664 9.65109C27.8249 9.62189 27.8835 9.59268 27.9421 9.54888C28.0739 9.60728 28.1618 9.72409 28.2204 9.8701C28.2789 10.0599 28.3668 10.3373 28.484 10.7169C28.6011 11.0966 28.7036 11.3886 28.7622 11.5638C28.7915 11.6368 28.8208 11.7244 28.8794 11.8412C28.9379 11.9726 28.9672 12.0748 28.9965 12.1332C29.099 12.4544 29.0551 12.6442 28.8647 12.7172C28.7915 12.7464 28.7329 12.7464 28.689 12.7464L28.5865 13.0823C28.689 13.1991 28.7915 13.2575 28.8794 13.2137C28.9526 13.1991 29.0258 13.1261 29.0844 13.0385L29.553 12.8048L30.256 12.7318C30.3731 12.7172 30.4024 12.5858 30.3585 12.3376C30.2706 12.2646 30.1681 12.25 30.0656 12.2938C30.007 12.3084 29.9484 12.3376 29.9045 12.3814L29.6995 12.2792C29.2601 10.9506 28.9965 10.2059 28.9379 10.0453C28.9379 10.0307 28.9233 9.9869 28.9087 9.9139C28.8794 9.8555 28.8794 9.8117 28.8501 9.76789C28.7329 9.40287 28.7769 9.18386 28.9819 9.09626C28.9965 9.09626 29.0551 9.08166 29.099 9.08166L29.0844 8.80424L28.7915 8.76044L28.235 9.14006ZM45.2375 7.9282C45.2375 7.972 45.2375 8.03041 45.2229 8.07421L45.5743 8.33702L45.6183 8.68744L44.9446 11.3156C44.9007 11.447 44.7689 11.5054 44.5053 11.4616L44.3735 11.7244L44.5053 11.8558L44.9739 11.885L45.6915 12.177L45.9112 11.9142L45.589 11.6368L45.3547 11.6222C45.2961 11.5492 45.2814 11.4324 45.3107 11.3156C45.3254 11.2718 45.3547 11.228 45.384 11.1258C45.4279 11.0528 45.4425 10.9944 45.4425 10.9798L45.8819 8.95025H45.8965L46.2333 9.65109C46.4237 9.9869 46.5702 10.2059 46.6727 10.3519C47.2438 11.2572 47.6099 11.8704 47.771 12.2062C47.7857 12.3814 47.8003 12.4836 47.815 12.4982C47.8443 12.5858 47.9028 12.6442 48.02 12.6734C48.0639 12.688 48.1079 12.7026 48.1518 12.7026L48.269 12.4982C48.269 12.3376 48.2836 12.1916 48.2836 12.0456L49.0158 9.43208C49.0744 9.21307 49.2355 9.12546 49.4698 9.19846L49.6016 8.97945L49.4991 8.78964L48.9866 8.76044L48.3861 8.48303L48.2982 8.80424C48.5179 8.93565 48.6351 9.06706 48.6497 9.19846L48.4008 9.9869L48.1518 11.3156L48.0932 11.374C47.9175 11.0528 47.771 10.7899 47.6832 10.6293C47.6246 10.5417 47.5221 10.3811 47.3756 10.2059C47.2438 10.0161 47.156 9.8847 47.0827 9.78249C46.658 8.97945 46.3505 8.39542 46.1455 7.9866L45.8526 8.0158C45.7208 7.9282 45.589 7.8406 45.4718 7.78219C45.4425 7.75299 45.4132 7.75299 45.3986 7.75299C45.3254 7.75299 45.2668 7.81139 45.2375 7.9282ZM33.4046 7.79679C33.2142 7.8406 33.0385 7.826 32.892 7.76759L32.7456 8.13261L33.2142 8.22021L33.3314 8.38082C33.3753 8.68744 33.4046 8.95025 33.4485 9.18386C33.5071 9.43208 33.5657 9.63649 33.6389 9.79709V10.2789L33.7268 10.5125L33.6389 11.1988C33.4339 11.4178 33.141 11.5638 32.7602 11.6514C32.5552 11.666 32.4527 11.6806 32.3941 11.6806C32.2184 11.6806 31.984 11.5638 31.7058 11.374L31.1932 9.15466C31.1932 9.12546 31.1786 9.09626 31.1639 9.05246C31.1493 9.00865 31.1347 8.97945 31.1347 8.95025C31.1054 8.81885 31.12 8.70204 31.1786 8.58523C31.2518 8.58523 31.3104 8.58523 31.3397 8.58523C31.5301 8.54143 31.6033 8.41002 31.5593 8.20561L31.3397 8.11801L30.7246 8.39542L30.0217 8.36622L29.8899 8.67284L30.1388 8.86265L30.3878 8.76044C30.461 8.81884 30.5342 8.99405 30.5781 9.27147C30.5928 9.28607 30.6807 9.8117 30.8564 10.8337V10.9214C30.8564 10.9652 30.871 10.9944 30.871 11.009L30.8857 11.0966C30.9882 11.6076 31.2957 11.9142 31.779 12.031C32.1305 12.104 32.5991 12.0894 33.1703 11.958C33.2142 11.958 33.2874 11.9142 33.3899 11.8704C33.7853 11.6806 34.0197 11.4324 34.1222 11.0966C34.1954 10.8921 34.1661 10.4103 34.0343 9.68029C33.9904 9.51968 33.9171 9.03786 33.7414 8.23482C33.7707 8.08881 33.8879 8.0012 34.0929 7.9574L34.0197 7.60698C33.7561 7.69459 33.551 7.76759 33.4046 7.79679ZM35.777 7.59238C35.6159 7.65079 35.4988 7.67999 35.4548 7.69459C35.3523 7.69459 35.1473 7.65079 34.8398 7.53398L34.7372 7.8698L35.118 8.0012L35.1766 8.17641L35.4402 10.9506C35.4548 10.9944 35.4548 11.0236 35.4548 11.0528C35.4695 11.1988 35.323 11.3156 35.0155 11.3886L35.0301 11.6806C35.0741 11.739 35.1327 11.7682 35.2205 11.7536C35.3377 11.7536 35.4841 11.6806 35.6452 11.5638L37.9591 11.447L38.1641 10.5563L37.8419 10.3519L37.5637 10.936C36.9925 11.082 36.5825 11.1696 36.3189 11.1842C36.2603 11.1988 36.231 11.1988 36.2164 11.1988L36.026 11.0382C36.0113 10.7899 35.982 10.4103 35.9674 9.8993C35.9235 9.38827 35.9088 9.00865 35.8795 8.76044C35.8649 8.52683 35.8502 8.38082 35.821 8.33702C35.8063 8.07421 35.9674 7.9136 36.2896 7.8552L36.2603 7.56318L36.0992 7.49018C35.9967 7.50478 35.8795 7.54858 35.777 7.59238ZM41.7228 9.8263L41.7081 9.69489C41.9571 9.43208 42.1035 9.08166 42.1475 8.65824L42.2793 8.59983L42.3232 8.67284L42.3525 9.24227C42.4404 9.47588 42.5282 9.65109 42.6015 9.78249L42.5868 9.8701L41.7228 9.8263ZM38.6474 7.30037C38.5449 7.30037 38.4863 7.41717 38.4424 7.63619C38.5156 7.73839 38.6181 7.78219 38.7353 7.78219C38.7938 7.78219 38.8524 7.76759 38.9403 7.75299C39.0428 7.8552 39.0867 7.972 39.0867 8.14721C39.0867 8.35162 39.0721 8.64364 39.0721 9.05246C39.0574 9.43208 39.0428 9.72409 39.0281 9.9285C39.0281 10.0015 39.0428 10.0891 39.0428 10.2351C39.0428 10.3665 39.0574 10.4687 39.0574 10.5417C39.0428 10.8775 38.9256 11.0528 38.7206 11.0528C38.662 11.0528 38.6035 11.0382 38.5302 11.0236L38.3398 11.301C38.3984 11.447 38.4716 11.52 38.5742 11.52C38.6327 11.52 38.7206 11.4908 38.8378 11.4178L39.3503 11.374L40.0386 11.5492C40.1265 11.5638 40.1997 11.4762 40.2437 11.3156C40.3169 11.374 40.4194 11.4178 40.5658 11.4178C40.6684 11.4324 40.8294 11.4324 41.0052 11.4032L41.4885 11.5784L41.6056 11.2426L41.1663 11.0528L41.1956 10.7899C41.3567 10.4833 41.4738 10.2497 41.5617 10.0891L42.1328 10.2789L42.3232 10.2059C42.3525 10.2351 42.4111 10.2497 42.455 10.2497C42.5136 10.2643 42.5722 10.2643 42.6454 10.2497C42.7918 10.8191 42.8797 11.1258 42.8797 11.1404C42.8651 11.2426 42.7625 11.3156 42.5575 11.3302L42.5282 11.666C42.6893 11.6222 42.8211 11.6076 42.9529 11.5784C43.3923 11.6222 43.6559 11.6952 43.7437 11.812C43.8609 11.8266 43.9634 11.7098 44.022 11.4762L43.6559 11.3302L43.4655 10.9652L43.4216 10.4833L43.3337 10.3665C43.0994 9.54888 42.9383 8.95025 42.8211 8.54143C42.7626 8.16181 42.7333 7.8844 42.7186 7.67999C42.704 7.62158 42.6893 7.57778 42.6747 7.54858C42.6454 7.51938 42.6015 7.50478 42.5282 7.50478C42.4843 7.50478 42.4404 7.50478 42.3818 7.50478C42.25 7.66539 42.1328 7.9428 42.0157 8.33702C41.9424 8.41002 41.8692 8.49763 41.796 8.57063L40.7855 10.7315C40.7416 10.8191 40.6684 10.8921 40.5805 10.9652C40.4633 11.0382 40.3755 11.082 40.2876 11.082V11.1988C40.2144 11.1112 40.1265 11.082 40.024 11.082C39.9801 11.0674 39.9068 11.082 39.8483 11.1112L39.6872 10.9214C39.7164 9.51968 39.7311 8.73124 39.7311 8.57063V8.42463V8.27862C39.7457 7.8844 39.8629 7.69459 40.0826 7.69459C40.1119 7.70919 40.1558 7.70919 40.1997 7.72379L40.2876 7.46098L40.024 7.31497L39.365 7.46098L38.6767 7.30037H38.6474ZM57.4073 65.3821C57.334 65.3821 57.2608 65.4405 57.2462 65.5281C57.2755 65.4551 57.3487 65.3821 57.4073 65.3821ZM21.0884 21.1857C21.0591 21.1419 21.0298 21.0981 20.9859 21.0689C21.0298 21.0981 21.0444 21.1419 21.0884 21.1711C21.147 21.2587 21.2495 21.2441 21.3081 21.1857C21.2788 21.2149 21.2348 21.2295 21.1909 21.2295C21.147 21.2441 21.1177 21.2295 21.0884 21.1857ZM21.2055 20.8061C21.2348 20.8645 21.2788 20.9083 21.3081 20.9521C21.2934 20.8937 21.2348 20.8645 21.2055 20.8061ZM57.9784 64.9295C62.0789 59.6148 64.2463 52.2414 64.2463 43.6416C64.2463 35.1586 62.1375 27.8728 58.1395 22.6019C60.2044 20.8207 62.3132 19.0832 64.466 17.4041C64.4953 17.3749 64.5099 17.3603 64.5099 17.3311C69.6063 23.9598 72.506 32.9977 72.506 43.627C72.506 54.9718 69.2402 64.4623 63.4995 71.1786C61.5078 69.2951 59.2818 67.6306 57.5391 65.4697C57.5244 65.4697 57.5244 65.4697 57.5098 65.4551C57.4805 65.4113 57.4512 65.3967 57.4219 65.3967C57.4512 65.4113 57.4805 65.4259 57.5098 65.4551C57.5244 65.4551 57.5244 65.4697 57.5391 65.4697C57.7002 65.2945 57.8466 65.1047 57.9784 64.9295ZM5.34532 43.6124C5.34532 31.596 9.05043 21.6383 15.4502 14.8636C17.3979 16.8493 19.2285 18.908 20.9859 21.0689C20.6051 21.4923 20.239 21.9157 19.9022 22.3683C15.787 27.6684 13.6342 35.0272 13.6342 43.6416C13.6342 52.256 15.8016 59.6148 19.9022 64.9295C20.0925 65.1631 20.2683 65.3967 20.4733 65.6303C18.3791 67.4262 16.4167 69.3681 14.5861 71.4268C8.69896 64.6959 5.34532 55.1032 5.34532 43.6124ZM15.6845 14.6153C21.4984 8.59983 29.4944 5.18326 38.9403 5.16866C49.6309 5.18326 58.447 9.56348 64.3635 17.1121C64.3196 17.1121 64.2903 17.1121 64.2463 17.1559C62.0936 18.8204 59.9994 20.5432 57.9345 22.3245C57.9198 22.3537 57.9052 22.3537 57.8905 22.3683C57.8612 22.3975 57.832 22.4413 57.832 22.4705C57.832 22.4267 57.8466 22.3975 57.8905 22.3683C57.9052 22.3537 57.9198 22.3537 57.9345 22.3245C53.5557 16.6886 47.0974 13.6809 39.2625 13.6079H38.9549V13.9583C54.3465 13.9583 63.8949 25.3323 63.9095 43.6416C63.8949 58.0233 57.3487 73.3979 38.9549 73.3979V73.7483H39.2625C46.7459 73.6753 52.9699 70.9304 57.334 65.7617V65.7471C57.334 65.7325 57.3194 65.7179 57.3047 65.7033C57.3194 65.7179 57.334 65.7325 57.334 65.7471V65.7617C59.0768 67.908 61.3028 69.5579 63.2944 71.456C57.4073 78.2161 48.9865 82.0999 38.9403 82.1145C28.9965 82.0999 20.6637 78.3184 14.8058 71.7042C16.6364 69.6455 18.5988 67.7182 20.6783 65.9223C25.0278 70.9742 31.2079 73.6899 38.6181 73.7483H38.911V73.3979C20.5319 73.3979 13.9711 58.0379 13.9711 43.6416C13.9711 34.0489 16.5925 26.3543 21.3081 21.2003C21.3081 21.2003 21.3081 21.2003 21.3227 21.2003L21.3373 21.1857C21.3373 21.1857 21.3373 21.2003 21.3227 21.2003C25.599 16.528 31.6033 13.9583 38.911 13.9583V13.5933H38.6181C31.5008 13.6517 25.5257 16.1484 21.2202 20.8061C19.4628 18.6451 17.6176 16.601 15.6845 14.6153ZM38.5595 4.81824C28.3961 4.92045 19.8436 8.84805 13.81 16.1922C8.12781 23.1276 4.99385 32.8517 4.99385 43.6124V43.627C4.99385 54.3877 8.12781 64.1264 13.81 71.0472C19.8436 78.3914 28.3961 82.3336 38.5595 82.4212H39.2918C49.4552 82.3336 58.037 78.3914 64.056 71.0472C69.7381 64.1264 72.8574 54.3877 72.8721 43.627V43.6124C72.8721 32.8517 69.7381 23.113 64.056 16.1922C58.037 8.84805 49.4552 4.90585 39.2918 4.81824H38.5595ZM3.92478 43.6124C3.92478 19.8716 17.9983 3.9276 38.9403 3.913C59.8676 3.9276 73.9411 19.8862 73.9411 43.6124C73.9411 67.3678 59.8676 83.3264 38.9403 83.341C17.9983 83.3264 3.92478 67.3678 3.92478 43.6124ZM38.5156 0C26.9316 0.116806 17.0904 4.61383 10.0902 13.0239C3.58795 20.8353 0 31.6982 0 43.6124C0 55.5412 3.58795 66.4042 10.0902 74.2155C17.105 82.6402 26.9463 87.1372 38.5449 87.254H39.3503C50.9489 87.1372 60.7902 82.6402 67.7904 74.2155C74.2926 66.4042 77.8806 55.5412 77.8806 43.6124C77.8806 31.6982 74.2926 20.8353 67.7904 13.0385C60.7755 4.61383 50.9343 0.116806 39.3064 0H38.5156Z" fill="#CCCCCC"/>
</g>
<defs>
<clipPath id="clip0_79_69">
<rect width="77.8659" height="87.254" fill="white"/>
</clipPath>
</defs>
</svg>
