<svg width="726" height="740" viewBox="0 0 726 740" fill="none" xmlns="http://www.w3.org/2000/svg">
<g opacity="0.3">
<path opacity="0.5" d="M479.493 316.018L5.44578 186.461" stroke="#FAFAFA" stroke-width="0.1545" stroke-miterlimit="10" stroke-linecap="round"/>
<path d="M100.648 66.1505L1.00013 243.888" stroke="#FAFAFA" stroke-width="0.2575" stroke-miterlimit="10" stroke-linecap="round"/>
<path d="M1.0001 446.797L302.017 729.86" stroke="#FAFAFA" stroke-width="0.2575" stroke-miterlimit="10" stroke-linecap="round"/>
<path d="M1.0001 435.496L302.017 677.463" stroke="#FAFAFA" stroke-width="0.2575" stroke-miterlimit="10" stroke-linecap="round"/>
<path d="M724.912 290.475L497.541 205.539" stroke="#FAFAFA" stroke-width="0.2575" stroke-miterlimit="10" stroke-linecap="round"/>
<path d="M100.648 322.997L522.87 205.539" stroke="#FAFAFA" stroke-width="0.2575" stroke-miterlimit="10" stroke-linecap="round"/>
<path d="M724.912 452.448L481.494 527.979" stroke="#FAFAFA" stroke-width="0.2575" stroke-miterlimit="10" stroke-linecap="round"/>
<path d="M264.007 677.463L724.912 474.023" stroke="#FAFAFA" stroke-width="0.2575" stroke-miterlimit="10" stroke-linecap="round"/>
<path d="M264.007 729.86L724.912 495.598" stroke="#FAFAFA" stroke-width="0.2575" stroke-miterlimit="10" stroke-linecap="round"/>
<path d="M281.436 293.221L0.999992 351.109" stroke="#FAFAFA" stroke-width="0.2575" stroke-miterlimit="10" stroke-linecap="round"/>
<path d="M251.325 295.258L724.912 358.956" stroke="#FAFAFA" stroke-width="0.2575" stroke-miterlimit="10" stroke-linecap="round"/>
<path d="M724.912 448.002L238.059 580.889" stroke="#FAFAFA" stroke-width="0.2575" stroke-miterlimit="10" stroke-linecap="round"/>
<path d="M274.776 580.889L1.00001 419.926" stroke="#FAFAFA" stroke-width="0.2575" stroke-miterlimit="10" stroke-linecap="round"/>
<path d="M54.4198 81.5613L724.912 322.165" stroke="#FAFAFA" stroke-width="0.2575" stroke-miterlimit="10" stroke-linecap="round"/>
<path d="M481.494 373.906L724.912 378.83" stroke="#FAFAFA" stroke-width="0.2575" stroke-miterlimit="10" stroke-linecap="round"/>
<path d="M522.87 373.906L1 383.028" stroke="#FAFAFA" stroke-width="0.2575" stroke-miterlimit="10" stroke-linecap="round"/>
<path d="M510.542 527.978L1.00006 399.024" stroke="#FAFAFA" stroke-width="0.2575" stroke-miterlimit="10" stroke-linecap="round"/>
<g opacity="0.5">
<path opacity="0.5" d="M100.648 60.5885L1.00013 238.344" stroke="#FAFAFA" stroke-width="0.1545" stroke-miterlimit="10" stroke-linecap="round"/>
<path opacity="0.5" d="M1.0001 441.253L302.017 724.298" stroke="#FAFAFA" stroke-width="0.1545" stroke-miterlimit="10" stroke-linecap="round"/>
<path opacity="0.5" d="M1.0001 429.952L302.017 671.901" stroke="#FAFAFA" stroke-width="0.1545" stroke-miterlimit="10" stroke-linecap="round"/>
<path opacity="0.5" d="M724.912 284.913L497.541 199.977" stroke="#FAFAFA" stroke-width="0.1545" stroke-miterlimit="10" stroke-linecap="round"/>
<path opacity="0.5" d="M100.648 317.453L522.87 199.977" stroke="#FAFAFA" stroke-width="0.1545" stroke-miterlimit="10" stroke-linecap="round"/>
<path opacity="0.5" d="M724.912 446.904L481.494 522.416" stroke="#FAFAFA" stroke-width="0.1545" stroke-miterlimit="10" stroke-linecap="round"/>
<path opacity="0.5" d="M264.007 671.901L724.912 468.479" stroke="#FAFAFA" stroke-width="0.1545" stroke-miterlimit="10" stroke-linecap="round"/>
<path opacity="0.5" d="M264.007 724.298L724.912 490.054" stroke="#FAFAFA" stroke-width="0.1545" stroke-miterlimit="10" stroke-linecap="round"/>
<path opacity="0.5" d="M281.436 287.676L0.999992 345.547" stroke="#FAFAFA" stroke-width="0.1545" stroke-miterlimit="10" stroke-linecap="round"/>
<path opacity="0.5" d="M251.325 289.713L724.912 353.411" stroke="#FAFAFA" stroke-width="0.1545" stroke-miterlimit="10" stroke-linecap="round"/>
<path opacity="0.5" d="M724.912 442.458L238.059 575.327" stroke="#FAFAFA" stroke-width="0.1545" stroke-miterlimit="10" stroke-linecap="round"/>
<path opacity="0.5" d="M274.776 575.327L1.00001 414.364" stroke="#FAFAFA" stroke-width="0.1545" stroke-miterlimit="10" stroke-linecap="round"/>
<path opacity="0.5" d="M54.4198 75.9993L724.912 316.603" stroke="#FAFAFA" stroke-width="0.1545" stroke-miterlimit="10" stroke-linecap="round"/>
<path opacity="0.5" d="M481.494 368.362L724.912 373.268" stroke="#FAFAFA" stroke-width="0.1545" stroke-miterlimit="10" stroke-linecap="round"/>
<path opacity="0.5" d="M522.87 368.362L1 377.484" stroke="#FAFAFA" stroke-width="0.1545" stroke-miterlimit="10" stroke-linecap="round"/>
<path opacity="0.5" d="M510.542 522.417L1.00006 393.48" stroke="#FAFAFA" stroke-width="0.1545" stroke-miterlimit="10" stroke-linecap="round"/>
</g>
<g opacity="0.5">
<path opacity="0.5" d="M100.648 70.4017L1.00013 248.14" stroke="#FAFAFA" stroke-width="0.1545" stroke-miterlimit="10" stroke-linecap="round"/>
<path opacity="0.5" d="M1.0001 451.066L302.017 734.111" stroke="#FAFAFA" stroke-width="0.1545" stroke-miterlimit="10" stroke-linecap="round"/>
<path opacity="0.5" d="M1.0001 439.765L302.017 681.714" stroke="#FAFAFA" stroke-width="0.1545" stroke-miterlimit="10" stroke-linecap="round"/>
<path opacity="0.5" d="M724.912 294.726L497.541 209.79" stroke="#FAFAFA" stroke-width="0.1545" stroke-miterlimit="10" stroke-linecap="round"/>
<path opacity="0.5" d="M100.648 327.266L522.87 209.79" stroke="#FAFAFA" stroke-width="0.1545" stroke-miterlimit="10" stroke-linecap="round"/>
<path opacity="0.5" d="M724.912 456.717L481.494 532.23" stroke="#FAFAFA" stroke-width="0.1545" stroke-miterlimit="10" stroke-linecap="round"/>
<path opacity="0.5" d="M264.007 681.714L724.912 478.292" stroke="#FAFAFA" stroke-width="0.1545" stroke-miterlimit="10" stroke-linecap="round"/>
<path opacity="0.5" d="M264.007 734.111L724.912 499.867" stroke="#FAFAFA" stroke-width="0.1545" stroke-miterlimit="10" stroke-linecap="round"/>
<path opacity="0.5" d="M281.436 297.49L0.999992 355.36" stroke="#FAFAFA" stroke-width="0.1545" stroke-miterlimit="10" stroke-linecap="round"/>
<path opacity="0.5" d="M251.325 299.527L724.912 363.225" stroke="#FAFAFA" stroke-width="0.1545" stroke-miterlimit="10" stroke-linecap="round"/>
<path opacity="0.5" d="M724.912 452.253L238.059 585.14" stroke="#FAFAFA" stroke-width="0.1545" stroke-miterlimit="10" stroke-linecap="round"/>
<path opacity="0.5" d="M274.776 585.14L1.00001 424.177" stroke="#FAFAFA" stroke-width="0.1545" stroke-miterlimit="10" stroke-linecap="round"/>
<path opacity="0.5" d="M54.4198 85.8124L724.912 326.416" stroke="#FAFAFA" stroke-width="0.1545" stroke-miterlimit="10" stroke-linecap="round"/>
<path opacity="0.5" d="M481.494 378.175L724.912 383.081" stroke="#FAFAFA" stroke-width="0.1545" stroke-miterlimit="10" stroke-linecap="round"/>
<path opacity="0.5" d="M522.87 378.175L1 387.297" stroke="#FAFAFA" stroke-width="0.1545" stroke-miterlimit="10" stroke-linecap="round"/>
<path opacity="0.5" d="M510.542 532.23L1.00006 403.293" stroke="#FAFAFA" stroke-width="0.1545" stroke-miterlimit="10" stroke-linecap="round"/>
</g>
<path d="M716.924 287.995V499.69L710.228 503.056V285.498L716.924 287.995Z" stroke="#FAFAFA" stroke-width="0.2575" stroke-miterlimit="10" stroke-linecap="round"/>
<path d="M710.229 285.497L702.931 287.039V500.877L710.229 503.055" stroke="#FAFAFA" stroke-width="0.2575" stroke-miterlimit="10" stroke-linecap="round"/>
<path d="M494.46 523.904V213.439L479.493 217.601V520.114L494.46 523.904Z" stroke="#FAFAFA" stroke-width="0.2575" stroke-miterlimit="10" stroke-linecap="round"/>
<path d="M494.46 213.439L508.842 217.867V519.458L494.46 523.904V213.439Z" stroke="#FAFAFA" stroke-width="0.2575" stroke-miterlimit="10" stroke-linecap="round"/>
<path d="M424.249 319.614V530.069L413.373 533.027V318.197L424.249 319.614Z" stroke="#FAFAFA" stroke-width="0.2575" stroke-miterlimit="10" stroke-linecap="round"/>
<path d="M413.373 318.197L402.339 319.915V529.041L413.373 533.027" stroke="#FAFAFA" stroke-width="0.2575" stroke-miterlimit="10" stroke-linecap="round"/>
<path d="M263.139 574.034V296.976L278.531 298.924V569.836L263.139 574.034Z" stroke="#FAFAFA" stroke-width="0.2575" stroke-miterlimit="10" stroke-linecap="round"/>
<path d="M263.139 296.976L249.165 299.881V565.815L263.139 574.034V296.976Z" stroke="#FAFAFA" stroke-width="0.2575" stroke-miterlimit="10" stroke-linecap="round"/>
<path d="M85.6994 92.7916V526.455L77.357 518.608V107.671L85.6994 92.7916Z" stroke="#FAFAFA" stroke-width="0.515" stroke-miterlimit="10" stroke-linecap="round"/>
<path d="M85.6994 92.7916L98.7532 97.468V524.666L85.6994 526.455V92.7916Z" stroke="#FAFAFA" stroke-width="0.515" stroke-miterlimit="10" stroke-linecap="round"/>
<path d="M13.7528 221.144V458.789L18.7476 463.501V212.217L13.7528 221.144Z" stroke="#FAFAFA" stroke-width="0.2575" stroke-miterlimit="10" stroke-linecap="round"/>
<path d="M18.7476 212.217L26.5941 214.874V463.501H18.7476" stroke="#FAFAFA" stroke-width="0.2575" stroke-miterlimit="10" stroke-linecap="round"/>
<path d="M324.777 178.579V493.561L313.513 495.598V174.54L324.777 178.579Z" stroke="#FAFAFA" stroke-width="0.2575" stroke-miterlimit="10" stroke-linecap="round"/>
<path d="M313.513 174.54L302.017 180.704V490.213L313.513 495.598V174.54Z" stroke="#FAFAFA" stroke-width="0.2575" stroke-miterlimit="10" stroke-linecap="round"/>
<path d="M74.7532 527.978L724.912 438.49" stroke="#FAFAFA" stroke-width="0.2575" stroke-miterlimit="10" stroke-linecap="round"/>
<path d="M26.594 509.486L134.372 498.344V323.422" stroke="#FAFAFA" stroke-width="0.515" stroke-miterlimit="10" stroke-linecap="round"/>
<path d="M147.869 141.061L268.471 181.111" stroke="#FAFAFA" stroke-width="0.515" stroke-miterlimit="10" stroke-linecap="round"/>
<path d="M260.872 172.91V296.976" stroke="#FAFAFA" stroke-width="0.515" stroke-miterlimit="10" stroke-linecap="round"/>
<path d="M260.872 178.596L236.217 189.348L153.696 163.664" stroke="#FAFAFA" stroke-width="0.515" stroke-miterlimit="10" stroke-linecap="round"/>
<path d="M236.217 189.348V301.121" stroke="#FAFAFA" stroke-width="0.515" stroke-miterlimit="10" stroke-linecap="round"/>
<path d="M227.485 304.327V195.513L153.696 172.91" stroke="#FAFAFA" stroke-width="0.515" stroke-miterlimit="10" stroke-linecap="round"/>
<path d="M227.485 195.513L221.321 199.108L153.696 178.561" stroke="#FAFAFA" stroke-width="0.515" stroke-miterlimit="10" stroke-linecap="round"/>
<path d="M221.321 199.108V305.638" stroke="#FAFAFA" stroke-width="0.515" stroke-miterlimit="10" stroke-linecap="round"/>
<path d="M182.425 181.714V313.644" stroke="#FAFAFA" stroke-width="0.515" stroke-miterlimit="10" stroke-linecap="round"/>
<path d="M176.793 314.813V179.978L172.205 184.176V315.752" stroke="#FAFAFA" stroke-width="0.515" stroke-miterlimit="10" stroke-linecap="round" stroke-linejoin="round"/>
<path d="M66.0567 182.245V296.976L34.0332 313.237V224.368L66.0567 182.245Z" stroke="#FAFAFA" stroke-width="0.515" stroke-miterlimit="10" stroke-linecap="round"/>
<path d="M34.0332 224.368H43.1195L66.0567 200.402" stroke="#FAFAFA" stroke-width="0.515" stroke-miterlimit="10" stroke-linecap="round"/>
<path d="M43.1196 224.368V308.348" stroke="#FAFAFA" stroke-width="0.515" stroke-miterlimit="10" stroke-linecap="round"/>
<path d="M46.2014 307.055V226.423L66.0567 205.538" stroke="#FAFAFA" stroke-width="0.515" stroke-miterlimit="10" stroke-linecap="round"/>
<path d="M46.2014 226.423H48.6811L66.0567 209.737" stroke="#FAFAFA" stroke-width="0.515" stroke-miterlimit="10" stroke-linecap="round"/>
<path d="M48.681 226.423V305.797" stroke="#FAFAFA" stroke-width="0.515" stroke-miterlimit="10" stroke-linecap="round"/>
<path d="M292.931 566.505V335.078L393.802 345.6V538.376L367.942 527.978V342.907" stroke="#FAFAFA" stroke-width="0.515" stroke-miterlimit="10" stroke-linecap="round"/>
<path d="M367.942 527.978L292.931 547.322" stroke="#FAFAFA" stroke-width="0.515" stroke-miterlimit="10" stroke-linecap="round"/>
<path d="M334.183 361.365L359.529 363.419V410.414H334.183V361.365Z" stroke="#FAFAFA" stroke-width="0.515" stroke-miterlimit="10" stroke-linecap="round"/>
<path d="M328.71 361.365V410.413H297.554V358.956L328.71 361.365Z" stroke="#FAFAFA" stroke-width="0.515" stroke-miterlimit="10" stroke-linecap="round"/>
<path d="M359.529 416.489H334.183V461.694L359.529 459.994V416.489Z" stroke="#FAFAFA" stroke-width="0.515" stroke-miterlimit="10" stroke-linecap="round"/>
<path d="M328.71 416.489V461.694L297.554 463.501V417.18L328.71 416.489Z" stroke="#FAFAFA" stroke-width="0.515" stroke-miterlimit="10" stroke-linecap="round"/>
<path d="M233.348 335.078V378.972L145.301 380.513V346.113L233.348 335.078Z" stroke="#FAFAFA" stroke-width="0.515" stroke-miterlimit="10" stroke-linecap="round"/>
<path d="M155.184 380.336V344.873" stroke="#FAFAFA" stroke-width="0.515" stroke-miterlimit="10" stroke-linecap="round"/>
<path d="M192.379 340.215V379.698" stroke="#FAFAFA" stroke-width="0.515" stroke-miterlimit="10" stroke-linecap="round"/>
<path d="M185.171 341.118V379.698" stroke="#FAFAFA" stroke-width="0.515" stroke-miterlimit="10" stroke-linecap="round"/>
<path d="M197.551 340.215V379.627" stroke="#FAFAFA" stroke-width="0.515" stroke-miterlimit="10" stroke-linecap="round"/>
<path d="M66.0567 355.873V381.895L34.0332 382.461V360.408L66.0567 355.873Z" stroke="#FAFAFA" stroke-width="0.515" stroke-miterlimit="10" stroke-linecap="round"/>
<path d="M38.957 359.717V382.373" stroke="#FAFAFA" stroke-width="0.515" stroke-miterlimit="10" stroke-linecap="round"/>
<path d="M50.0449 358.141V382.178" stroke="#FAFAFA" stroke-width="0.515" stroke-miterlimit="10" stroke-linecap="round"/>
<path d="M54.4198 357.786V382.107" stroke="#FAFAFA" stroke-width="0.515" stroke-miterlimit="10" stroke-linecap="round"/>
<path d="M57.1475 357.131V382.054" stroke="#FAFAFA" stroke-width="0.515" stroke-miterlimit="10" stroke-linecap="round"/>
<path d="M716.924 282.929V477.566L288.538 666.622L85.6993 503.374L134.372 498.344L263.139 574.034V296.976L469.751 324.644V517.651" stroke="#FAFAFA" stroke-width="1.03" stroke-miterlimit="10" stroke-linecap="round"/>
<path d="M85.6994 81.5613V333.625" stroke="#FAFAFA" stroke-width="1.03" stroke-miterlimit="10" stroke-linecap="round"/>
<path d="M508.346 209.577V374.473H494.46V523.904L469.751 517.651L393.802 538.376" stroke="#FAFAFA" stroke-width="1.03" stroke-miterlimit="10" stroke-linecap="round"/>
<path d="M649.812 475.741L702.931 483.234V378.83L650.822 377.325L649.812 475.741ZM649.812 475.741L494.459 523.904" stroke="#FAFAFA" stroke-width="1.03" stroke-miterlimit="10" stroke-linecap="round"/>
<path d="M716.924 477.566V499.69L288.68 717.319V666.622" stroke="#FAFAFA" stroke-width="1.03" stroke-miterlimit="10" stroke-linecap="round"/>
<path d="M543.256 701.677C518.009 701.677 497.541 693.834 497.541 684.159C497.541 674.483 518.009 666.64 543.256 666.64C568.504 666.64 588.971 674.483 588.971 684.159C588.971 693.834 568.504 701.677 543.256 701.677Z" stroke="#FAFAFA" stroke-width="0.515" stroke-miterlimit="10" stroke-linecap="round"/>
<path d="M575.829 630.558C575.829 635.394 586.067 639.326 598.695 639.326C611.324 639.326 621.562 635.411 621.562 630.558C621.562 625.722 611.324 621.79 598.695 621.79C586.067 621.79 575.829 625.704 575.829 630.558Z" stroke="#FAFAFA" stroke-width="0.515" stroke-miterlimit="10" stroke-linecap="round"/>
<path d="M66.0566 597.097C53.4278 597.097 43.1902 593.171 43.1902 588.329C43.1902 583.486 53.4278 579.56 66.0566 579.56C78.6853 579.56 88.9229 583.486 88.9229 588.329C88.9229 593.171 78.6853 597.097 66.0566 597.097Z" stroke="#FAFAFA" stroke-width="0.515" stroke-miterlimit="10" stroke-linecap="round"/>
<path d="M84.4063 630.558C84.4063 635.394 94.644 639.326 107.273 639.326C119.901 639.326 130.139 635.411 130.139 630.558C130.139 625.722 119.901 621.79 107.273 621.79C94.644 621.79 84.4063 625.704 84.4063 630.558Z" stroke="#FAFAFA" stroke-width="0.515" stroke-miterlimit="10" stroke-linecap="round"/>
<path d="M155.184 692.927C142.555 692.927 132.318 689.001 132.318 684.159C132.318 679.316 142.555 675.391 155.184 675.391C167.813 675.391 178.05 679.316 178.05 684.159C178.05 689.001 167.813 692.927 155.184 692.927Z" stroke="#FAFAFA" stroke-width="0.515" stroke-miterlimit="10" stroke-linecap="round"/>
<path d="M288.68 717.319L13.7527 458.789V221.144L85.6993 92.7916L324.777 178.578V260.645L508.346 209.577L716.924 287.995" stroke="#FAFAFA" stroke-width="1.03" stroke-miterlimit="10" stroke-linecap="round"/>
<path d="M324.777 260.645V305.177" stroke="#FAFAFA" stroke-width="1.03" stroke-miterlimit="10" stroke-linecap="round"/>
<path d="M85.6994 503.374V333.625" stroke="#FAFAFA" stroke-width="1.03" stroke-miterlimit="10" stroke-linecap="round"/>
<path d="M263.139 296.976L135.099 323.422L134.372 498.344" stroke="#FAFAFA" stroke-width="1.03" stroke-miterlimit="10" stroke-linecap="round"/>
<path d="M468.086 248.901V296.976L339.319 322.165V282.026L468.086 248.901Z" stroke="#FAFAFA" stroke-width="0.515" stroke-miterlimit="10" stroke-linecap="round"/>
<path d="M339.319 282.026L349.716 284.629L349.185 320.234" stroke="#FAFAFA" stroke-width="0.515" stroke-miterlimit="10" stroke-linecap="round"/>
<path d="M349.716 284.63L468.086 255.19" stroke="#FAFAFA" stroke-width="0.515" stroke-miterlimit="10" stroke-linecap="round"/>
<path d="M353.276 319.437V286.879L468.086 258.626" stroke="#FAFAFA" stroke-width="0.515" stroke-miterlimit="10" stroke-linecap="round"/>
<path d="M353.276 286.879H356.11V318.887" stroke="#FAFAFA" stroke-width="0.515" stroke-miterlimit="10" stroke-linecap="round"/>
<path d="M380.022 280.29V314.193" stroke="#FAFAFA" stroke-width="0.515" stroke-miterlimit="10" stroke-linecap="round"/>
<path d="M384.007 279.316V313.113" stroke="#FAFAFA" stroke-width="0.515" stroke-miterlimit="10" stroke-linecap="round"/>
<path d="M386.752 279.316V313.007" stroke="#FAFAFA" stroke-width="0.515" stroke-miterlimit="10" stroke-linecap="round"/>
<path d="M424.249 269.909V305.549" stroke="#FAFAFA" stroke-width="0.515" stroke-miterlimit="10" stroke-linecap="round"/>
<path d="M429.74 304.469V268.05" stroke="#FAFAFA" stroke-width="0.515" stroke-miterlimit="10" stroke-linecap="round"/>
<path d="M432.963 267.252V303.707" stroke="#FAFAFA" stroke-width="0.515" stroke-miterlimit="10" stroke-linecap="round"/>
<path d="M508.346 374.473L650.822 377.325" stroke="#FAFAFA" stroke-width="1.03" stroke-miterlimit="10" stroke-linecap="round"/>
<path d="M546.161 258.024V334.918" stroke="#FAFAFA" stroke-width="0.515" stroke-miterlimit="10" stroke-linecap="round"/>
<path d="M603.194 278.483V342.588" stroke="#FAFAFA" stroke-width="0.515" stroke-miterlimit="10" stroke-linecap="round"/>
<path d="M637.821 290.918V347.247" stroke="#FAFAFA" stroke-width="0.515" stroke-miterlimit="10" stroke-linecap="round"/>
<path d="M683.82 307.409V354.846" stroke="#FAFAFA" stroke-width="0.515" stroke-miterlimit="10" stroke-linecap="round"/>
<path d="M683.82 307.409L676.965 308.366V352.508" stroke="#FAFAFA" stroke-width="0.515" stroke-miterlimit="10" stroke-linecap="round"/>
<path d="M676.965 308.366L637.821 295.771" stroke="#FAFAFA" stroke-width="0.515" stroke-miterlimit="10" stroke-linecap="round"/>
<path d="M603.194 278.483L593.931 279.599V341.154" stroke="#FAFAFA" stroke-width="0.515" stroke-miterlimit="10" stroke-linecap="round"/>
<path d="M593.931 279.599L546.161 263.161" stroke="#FAFAFA" stroke-width="0.515" stroke-miterlimit="10" stroke-linecap="round"/>
<path d="M591.026 340.959V281.388L546.161 266.331" stroke="#FAFAFA" stroke-width="0.515" stroke-miterlimit="10" stroke-linecap="round"/>
<path d="M565.503 272.814V337.522" stroke="#FAFAFA" stroke-width="0.515" stroke-miterlimit="10" stroke-linecap="round"/>
<path d="M561.819 337.026V271.575L559.18 272.815V336.672" stroke="#FAFAFA" stroke-width="0.515" stroke-miterlimit="10" stroke-linecap="round"/>
<path d="M591.026 281.388L588.971 282.256V340.675" stroke="#FAFAFA" stroke-width="0.515" stroke-miterlimit="10" stroke-linecap="round"/>
<path d="M588.971 282.256L565.503 274.71" stroke="#FAFAFA" stroke-width="0.515" stroke-miterlimit="10" stroke-linecap="round"/>
<path d="M559.18 272.814L546.161 268.386" stroke="#FAFAFA" stroke-width="0.515" stroke-miterlimit="10" stroke-linecap="round"/>
<path d="M674.556 352.189V309.818L637.821 298.854" stroke="#FAFAFA" stroke-width="0.515" stroke-miterlimit="10" stroke-linecap="round"/>
<path d="M656.189 304.345V349.727" stroke="#FAFAFA" stroke-width="0.515" stroke-miterlimit="10" stroke-linecap="round"/>
<path d="M653.745 349.39V303.601L651.973 304.345V349.142" stroke="#FAFAFA" stroke-width="0.515" stroke-miterlimit="10" stroke-linecap="round"/>
<path d="M674.556 309.818L672.909 310.42V351.959" stroke="#FAFAFA" stroke-width="0.515" stroke-miterlimit="10" stroke-linecap="round"/>
<path d="M672.909 310.42L656.189 305.532" stroke="#FAFAFA" stroke-width="0.515" stroke-miterlimit="10" stroke-linecap="round"/>
<path d="M651.973 304.345L637.821 300.147" stroke="#FAFAFA" stroke-width="0.515" stroke-miterlimit="10" stroke-linecap="round"/>
<path d="M710.229 226.423V570.19" stroke="#FAFAFA" stroke-width="0.1545" stroke-miterlimit="10" stroke-linecap="round"/>
<path d="M508.842 162.14V674.895" stroke="#FAFAFA" stroke-width="0.1545" stroke-miterlimit="10" stroke-linecap="round"/>
<path d="M494.46 167.791V689.792" stroke="#FAFAFA" stroke-width="0.1545" stroke-miterlimit="10" stroke-linecap="round"/>
<path d="M325.38 157.003V739" stroke="#FAFAFA" stroke-width="0.1545" stroke-miterlimit="10" stroke-linecap="round"/>
<path d="M85.6994 54.5481V580.003" stroke="#FAFAFA" stroke-width="0.1545" stroke-miterlimit="10" stroke-linecap="round"/>
<path d="M413.373 121.488V558.499" stroke="#FAFAFA" stroke-width="0.1545" stroke-miterlimit="10" stroke-linecap="round"/>
<path d="M13.7527 171.971V510.867" stroke="#FAFAFA" stroke-width="0.1545" stroke-miterlimit="10" stroke-linecap="round"/>
<path d="M262.643 256.164V595.06" stroke="#FAFAFA" stroke-width="0.1545" stroke-miterlimit="10" stroke-linecap="round"/>
<path d="M724.912 266.367L57.1474 1" stroke="#FAFAFA" stroke-width="0.1545" stroke-miterlimit="10" stroke-linecap="round"/>
<path d="M1.0001 212.217L122.381 1" stroke="#FAFAFA" stroke-width="0.1545" stroke-miterlimit="10" stroke-linecap="round"/>
<path d="M153.696 137.731V319.153" stroke="#FAFAFA" stroke-width="0.515" stroke-miterlimit="10" stroke-linecap="round"/>
<path d="M636.564 387.297H508.842V468.478L636.564 450.659V387.297Z" stroke="#FAFAFA" stroke-width="0.515" stroke-miterlimit="10" stroke-linecap="round"/>
<path d="M628.469 387.297V449.366L636.564 450.659" stroke="#FAFAFA" stroke-width="0.515" stroke-miterlimit="10" stroke-linecap="round"/>
<path d="M628.469 449.366L508.842 465.131" stroke="#FAFAFA" stroke-width="0.515" stroke-miterlimit="10" stroke-linecap="round"/>
<path d="M624.59 387.297V446.903L508.842 460.419" stroke="#FAFAFA" stroke-width="0.515" stroke-miterlimit="10" stroke-linecap="round"/>
<path d="M572.694 387.297V452.961" stroke="#FAFAFA" stroke-width="0.515" stroke-miterlimit="10" stroke-linecap="round"/>
<path d="M563.112 453.652V387.297" stroke="#FAFAFA" stroke-width="0.515" stroke-miterlimit="10" stroke-linecap="round"/>
<path d="M566.707 387.297V453.652" stroke="#FAFAFA" stroke-width="0.515" stroke-miterlimit="10" stroke-linecap="round"/>
<path d="M624.59 446.903H621.668V387.297" stroke="#FAFAFA" stroke-width="0.515" stroke-miterlimit="10" stroke-linecap="round"/>
</g>
</svg>
